<svg xmlns="http://www.w3.org/2000/svg" xmlns:xlink="http://www.w3.org/1999/xlink" width="293.43" height="344.19" viewBox="0 0 293.43 344.19">
  <defs>
    <clipPath id="clip-path">
      <rect id="Rectangle_2142" data-name="Rectangle 2142" width="293.43" height="333.607" fill="none"/>
    </clipPath>
    <clipPath id="clip-path-2">
      <path id="Path_7564" data-name="Path 7564" d="M72.381,3.849c.243,4.071.652,8.136,1.253,12.179.288,1.952.67,3.889.993,5.835.033.2.065.4.1.6.02.237.039.476.061.713-.27-.589-.523-1.181-.824-1.758-.907-1.75-1.911-3.99-3.534-5.3a3.116,3.116,0,0,0-4.053-.2c-1.343,1.171-.822,2.91-.155,4.261,1.786,3.622,5.218,6.3,7.11,9.863a13.341,13.341,0,0,1,1.441,7.973c-.691-2.052-1.4-4.1-2.183-6.121-.856-2.2-2.583-4.756-5.524-4.492-.969.086-1.962.8-1.635,1.813.909,2.818,3.327,4.868,4.809,7.431a22.062,22.062,0,0,1,1.339,19.232,93.282,93.282,0,0,0-.844-9.6c-.527-3.689-2.312-8.38-7.427-7.5a1.39,1.39,0,0,0-.709,2.467c.006.008,0,.018.008.027a54.38,54.38,0,0,1,4.948,21.8,1.365,1.365,0,0,0,.576,1.114,48.888,48.888,0,0,1-4.2,6.211c-.217-7.02-3.223-13.8-6.256-20.3-.824-1.758-3.7-.366-2.884,1.38,3.589,7.681,7.446,16.054,5.365,24.554-.454,1.848,2.663,2.712,3.121.846.086-.349.129-.693.194-1.036a1.8,1.8,0,0,0,2.342-.341c2.622-3.217,3.609-7.533,7.1-10.137,2.961-2.209,6.773-3.382,8.564-6.691a1.564,1.564,0,0,0-2.138-2.1c-1.447.758-2.853,1.576-4.233,2.426.331-.781.638-1.572.9-2.377.756-2.338.813-5.379,2.551-7.343,2.812-3.184,8.116-3.28,10.3-7.194A1.563,1.563,0,0,0,86.712,40l-7.9,4c.572-2.438,2.577-4.537,4.578-6.183,2.532-2.085,5.224-3.9,7.4-6.326.875-.977-.47-2.614-1.747-2.23a27.37,27.37,0,0,0-9.142,4.7c1.353-5.87,8.259-10.4,11.521-15.277a1.534,1.534,0,0,0-1.747-2.23c-5.308,1.664-8.58,5.52-11.1,9.812-.18-2.87-.464-5.731-.824-8.559-.012-1.155-.008-2.307.049-3.464.2-3.9.8-8.371-2.6-11.353a1.861,1.861,0,0,0-1.224-.425c-.836,0-1.655.482-1.6,1.386" transform="translate(-54.646 -2.463)" fill="none"/>
    </clipPath>
    <clipPath id="clip-path-4">
      <path id="Path_7584" data-name="Path 7584" d="M100.1,73.348c.713-1.414,1.486-2.8,2.3-4.173q3.562-4.488,6.71-9.238a15.957,15.957,0,0,1,.55,2.5,1.135,1.135,0,0,0,.476.756c-.059.135-.108.274-.168.407a1.2,1.2,0,0,0,.815,1.682q-2.434,2.45-4.8,4.954a1.474,1.474,0,0,0-.413.881c-.619.642-1.259,1.265-1.862,1.921A83.515,83.515,0,0,0,98.289,79.6a54.231,54.231,0,0,0,1.815-6.252m1.382-12.655a1.518,1.518,0,0,0,.309-.685,42.125,42.125,0,0,1,2.04-8.1,16.872,16.872,0,0,1,3.885,4.721,1.847,1.847,0,0,0-.423.356,74.958,74.958,0,0,0-5.933,7.881q.144-2.082.123-4.171m3.548-11.721q1.429-2.655,2.853-5.312a82.15,82.15,0,0,1,4.3,7.74,1.157,1.157,0,0,0,.206.278q-.5,2.376-1.2,4.729a20.3,20.3,0,0,0-6.162-7.435m3.44-47.145a6.726,6.726,0,0,0,3.045,5.5,1.7,1.7,0,0,0,.313.182c.006.035.006.074.014.11a1.417,1.417,0,0,0-.634,1.394c.474,3.19.936,6.407,1.345,9.635a35.364,35.364,0,0,1-2.722-3.548c-1.739-2.522-3.493-5.007-6.2-6.763a1.618,1.618,0,0,0-2.448,1.59c1.725,6.009,6.9,10.182,11.971,13.994.243,2.391.454,4.783.574,7.176a55.46,55.46,0,0,1-6.971-7.358,1.747,1.747,0,0,0-2.289-.088,1.415,1.415,0,0,0-.1,2.083,56.318,56.318,0,0,0,9.483,9.494,81,81,0,0,1-.6,11.4,82.089,82.089,0,0,0-6.965-10.785,1.765,1.765,0,0,0-2.187-.621,1.419,1.419,0,0,0-.681,1.991c.871,1.136,1.7,2.291,2.512,3.464-.029.037-.061.069-.09.112a47.741,47.741,0,0,0-3.943,7.339c-.057.106-.114.211-.17.315a1.245,1.245,0,0,0-.129.149,1.358,1.358,0,0,0-.2.468c-.069.131-.139.262-.213.392-.223.421-.452.84-.676,1.261q-.463-2.437-1.14-4.838a1.315,1.315,0,0,0,0-.39,22.285,22.285,0,0,1,1.157-11.5l2.485-4.9a1.586,1.586,0,0,0-2.747-1.561A26.5,26.5,0,0,0,97.5,32.98q-.883,1.735-1.766,3.474c-.421-.852-.873-1.688-1.339-2.518a1.375,1.375,0,0,0,.272-1.077,14.212,14.212,0,0,1,.343-5.882,29.173,29.173,0,0,1,3.2-6.1c1.118-1.637-1.5-3.045-2.747-1.561a17.8,17.8,0,0,0-3.558,6.8c-.145.384-.276.777-.4,1.169a41.414,41.414,0,0,0-9.675-12.962c-1.318-1.192-3.393.149-2.626,1.68q2.839,5.681,6.154,11.139c-.55-.384-1.091-.781-1.658-1.145-2.712-1.741-7.321-4.126-10.129-1.189a1.4,1.4,0,0,0-.1,2.083c2.179,1.766,4.791,2.036,7.562,2.444,2.385.352,4.327,1.081,5.723,2.943a20.63,20.63,0,0,1,2.3,4.182,18.262,18.262,0,0,0-9.189-2.391,1.469,1.469,0,0,0-.511,2.886,46.825,46.825,0,0,1,12.868,6.362c.08.116.163.229.241.347a11.856,11.856,0,0,1,1.948,6.728c0,.039,0,.078,0,.119-.811-.719-1.662-1.4-2.542-2.05a22.649,22.649,0,0,0-5.567-3.415c-.065-.033-.127-.072-.192-.1l-.006.012c-.133-.055-.255-.123-.39-.176-1.664-.662-2.921,1.88-1.32,2.663a35.092,35.092,0,0,1,6.111,3.81c4.907,4.656,6.544,11.7,5.682,18.221a28.561,28.561,0,0,0-9.935-13.375l-.025-.027,0,0c-.112-.084-.217-.174-.331-.255-1.439-1.046-3.3,1.073-2.052,2.246a30.718,30.718,0,0,1,9.906,21.031,1.43,1.43,0,0,0,.865,1.267c-.533,1.335-1.106,2.657-1.76,3.945a1.444,1.444,0,0,0,.515,2.03,1.917,1.917,0,0,0,1.78-.016,1.724,1.724,0,0,0,2.322,1.063A95.712,95.712,0,0,1,108.108,83.8a1.9,1.9,0,0,0,.877.211c3.863,5.281,8.515,10.861,15.6,12.51a1.544,1.544,0,0,0,1.895-2.1c-1.226-2.63-4.486-3.9-6.882-5.5a42.023,42.023,0,0,1-3.667-2.731q-.929-.779-1.813-1.6a5.4,5.4,0,0,1-.642-.638,1.334,1.334,0,0,1-.123-.194,1.38,1.38,0,0,0,.121-1.261c3-.65,6.019-1.165,9.062-1.57a7.736,7.736,0,0,0,1.627.679c.033.008.065.02.1.031a58.479,58.479,0,0,0,6.195,5.063c1.776,1.257,5.633,4.37,7.09,1.057,1.093-2.485-2.4-4.674-4.349-5.774a27.9,27.9,0,0,0-3.885-1.764c3.045-.237,6.1-.362,9.171-.4a1.494,1.494,0,0,0,.564.458l.474.231a2.412,2.412,0,0,0,.495.241q4.424,2.167,8.852,4.331c2.98,1.459,6,3.427,9.53,3.1a1.528,1.528,0,0,0,1.255-1.394c.157-2.565-2.637-4.079-4.77-5.2a30.556,30.556,0,0,0-3.06-1.378c2.019.137,4.034.319,6.05.521a1.533,1.533,0,0,0,1.441,1.02c.946.082,1.9.208,2.849.364a1.49,1.49,0,0,0,.419.266,53.8,53.8,0,0,1,18.263,12.67c.993,1.061,3.342.082,2.769-1.328a21.79,21.79,0,0,0-10.111-10.867q4.568.773,9.072,1.682c.206.043.411.09.615.131,1.339,2.093,3.779,3.331,6.15,4.523q5.39,4.556,10.775,9.119c1.261,1.067,3.638-.163,2.626-1.684a27.9,27.9,0,0,0-8.7-8.322c-.7-.429-1.429-.809-2.164-1.181,2.187.394,4.425.666,6.653.957q2.756.65,5.5,1.314a1.524,1.524,0,0,0,.985.93q4.789,1.671,9.739,2.914a1.5,1.5,0,0,0,1.322-2.665c-4.668-3.493-10.364-4.425-16.134-5.2q-3.213-.757-6.438-1.486c2.1-.8,4.155-1.682,6.154-2.671a58.872,58.872,0,0,0,5.467-3.029c1.561-.989,2.857-2.218,2.931-4.037a1.633,1.633,0,0,0-2.371-1.349c-6.918,3.08-13.362,9.2-21.656,8.29a1.466,1.466,0,0,0-1.263.513c-5.892-1.171-11.813-2.205-17.761-3,2.833-1.66,5.723-3.241,8.68-4.713,2.32-1.155,4.678-2.23,7.057-3.276a14.613,14.613,0,0,0,5.4-3.575,1.44,1.44,0,0,0-.912-2.2c-5.191-.883-9.882,1.382-13.745,4.368-3.71,2.865-6.916,6.693-11.625,8.257a1.708,1.708,0,0,0-.7.437c-4.832-.517-9.673-.873-14.523-1,1.445-1.006,2.953-1.925,4.492-2.808,2.271-1.306,4.586-2.549,6.816-3.912,1.083-.662,2.156-1.347,3.188-2.074a9.577,9.577,0,0,0,2.8-2.446,2.062,2.062,0,0,0-.4-2.722,3.387,3.387,0,0,0-3.534-.129,26.41,26.41,0,0,0-6.062,3.671c-4.184,3.239-7.674,7.284-12.461,9.835a1.584,1.584,0,0,0-.593.533c-3.979.037-7.961.213-11.944.593.155-.123.309-.243.46-.368q2.008-1.588,4.018-3.182,4.013-3.179,8.03-6.362c1.617-1.281,5.635-3.479,4.333-5.943-1.341-2.534-5.573-.157-7.227.846-5.788,3.507-8.931,9.275-13.783,13.64a1.324,1.324,0,0,0-.472,1.21,3.712,3.712,0,0,0-.55.752q-1.386.19-2.778.411c-1.711.272-3.415.591-5.11.942q1.38-1.76,2.757-3.524l8.455-10.8c1.21-1.545-1.541-3.1-2.747-1.561q-3.541,4.525-7.084,9.05-1.714,2.192-3.427,4.38-.914,1.171-1.827,2.336l-.914,1.169-.057.074q-4.887,1.248-9.62,2.949c7.746-11.329,18.752-20.179,30.308-28.278,10.356-4.2,23.128-2.851,34.044-4.723a1.466,1.466,0,0,0-.317-2.908q-1.18.037-2.359.076a1.671,1.671,0,0,0-1.079.4c-7.564.954-15.562.883-23.06,2.193.683-.462,1.365-.92,2.048-1.38.037-.016.076-.025.112-.043a53.14,53.14,0,0,0,5.567-3.215,25.167,25.167,0,0,1,2.618-.707,81.661,81.661,0,0,1,10.7-1.429c4.071-.325,8.157-.446,12.242-.439a51.151,51.151,0,0,0,10.673.251h.014v0c.137-.014.276-.018.413-.035,1.866-.221,1.467-2.833-.317-2.91-3.62-.153-7.245-.247-10.869-.247-1.872-.208-3.738-.446-5.6-.611-.347-.031-.695-.051-1.042-.078,9.275-1.5,18.764-.063,27.961,1.406,1.472.235,2.843-1.255,1.655-2.41a13.223,13.223,0,0,0-4.576-2.857c2.318-.049,4.635-.051,6.953-.129a35.835,35.835,0,0,0,6.51-.509c1.651-.374,3.158-1.647,2.538-3.319-.538-1.459-2.359-1.848-3.865-1.735-2.412.182-4.836.679-7.221,1.053q-3.611.567-7.215,1.19c-1.878.323-3.75.677-5.625,1.026a37.808,37.808,0,0,0-4.917.94c-.521.1-1.042.208-1.564.315q-2.37.162-4.729.407l.014-.014a1.156,1.156,0,0,0,.276-.08,50.28,50.28,0,0,0,10.021-7.409c1.433-1.378,2.925-3.062,2.853-5.075a2.5,2.5,0,0,0-1.809-2.547c-1.216-.288-2.559.6-3.6,1.071a1.323,1.323,0,0,0-.826.971,1.619,1.619,0,0,0-.309.3c-.446.634-.9,1.273-1.355,1.913-4.3,5.584-10.669,9.336-17.387,12.394a61.843,61.843,0,0,0,6.258-7.75c1.247-1.846,2.641-3.867,2.432-6.121a2.34,2.34,0,0,0-2.134-2.293c-1.3-.055-2.6.879-3.583,1.545a1.3,1.3,0,0,0-.435,1.476,43.388,43.388,0,0,1-5.594,9.518,46.35,46.35,0,0,1-7.578,7.317c-1.672.65-3.3,1.382-4.907,2.148a54.38,54.38,0,0,0,7.6-11.447c.591-1.21,1.145-2.436,1.621-3.683a3.988,3.988,0,0,0,.129-3.06c-1.249-2.726-5.766-1.306-4.993,1.514a1.3,1.3,0,0,0-.2.444c-2.434,11.4-13.1,18.672-21.309,26.991q-2.808,2.2-5.469,4.523c-1.739,1.525-3.419,3.1-5.081,4.691q.766-1.977,1.4-3.992c.014-.033.043-.053.055-.09.484-1.4.92-2.818,1.328-4.241.029-.033.065-.053.094-.092l13.718-18.315c1.175-1.568-1.574-3.127-2.747-1.561l-9.258,12.361c.482-2.587.828-5.191,1.059-7.8q.46-.834.924-1.668l2.477-4.476q2.523-4.562,5.048-9.119a1.435,1.435,0,0,0-.517-2.032,1.726,1.726,0,0,0-2.23.468q-2.689,4.859-5.379,9.718a80.962,80.962,0,0,0-.529-9.032c.39-2.968,2.25-5.59,3.906-8.169C124.705,12,128.1,7.108,123.97,5.8a1.718,1.718,0,0,0-1.846.636,59.264,59.264,0,0,0-3.853,8.151c-.282-1.345-.566-2.688-.916-4.02a1.4,1.4,0,0,0-.787-.946c-.033-.3-.067-.6-.1-.905,0-.029-.016-.055-.022-.084.014-.029.027-.057.043-.084,1.253-2.1,3.27-4.135,2.354-6.7a1.691,1.691,0,0,0-2.332-.975,6.594,6.594,0,0,0-2.9,2.681A11.339,11.339,0,0,0,111.288.872a1.906,1.906,0,0,0-1.224-.423,1.435,1.435,0,0,0-1.59,1.378" transform="translate(-73.052 -0.449)" fill="none"/>
    </clipPath>
    <clipPath id="clip-path-6">
      <path id="Path_7605" data-name="Path 7605" d="M24.327,93.608c0,13.16,12.3,23.829,27.471,23.829s27.473-10.669,27.473-23.829S66.971,69.777,51.8,69.777,24.327,80.446,24.327,93.608" transform="translate(-24.327 -69.777)" fill="none"/>
    </clipPath>
    <clipPath id="clip-path-8">
      <path id="Path_7625" data-name="Path 7625" d="M71.137,57.437C57.9,62.725,52.105,77.264,58.2,89.909s21.769,18.613,35.01,13.324,19.034-19.825,12.937-32.472c-4.588-9.518-14.6-15.251-24.92-15.251a27.181,27.181,0,0,0-10.092,1.927" transform="translate(-55.776 -55.51)" fill="none"/>
    </clipPath>
    <clipPath id="clip-path-10">
      <path id="Path_7645" data-name="Path 7645" d="M88.948,31.347c-10.088,1.631-16.882,10.047-15.171,18.8s11.27,14.523,21.358,12.89,16.882-10.047,15.173-18.8c-1.512-7.752-9.191-13.166-17.939-13.166a21.445,21.445,0,0,0-3.421.276" transform="translate(-73.513 -31.071)" fill="none"/>
    </clipPath>
    <clipPath id="clip-path-12">
      <rect id="Rectangle_2147" data-name="Rectangle 2147" width="20.579" height="23.525" fill="none"/>
    </clipPath>
    <clipPath id="clip-path-13">
      <rect id="Rectangle_2148" data-name="Rectangle 2148" width="20.273" height="18.796" fill="none"/>
    </clipPath>
    <clipPath id="clip-path-14">
      <rect id="Rectangle_2149" data-name="Rectangle 2149" width="13.596" height="19.678" fill="none"/>
    </clipPath>
    <clipPath id="clip-path-15">
      <rect id="Rectangle_2150" data-name="Rectangle 2150" width="20.445" height="24.446" fill="none"/>
    </clipPath>
    <clipPath id="clip-path-16">
      <rect id="Rectangle_2151" data-name="Rectangle 2151" width="20.69" height="20.576" fill="none"/>
    </clipPath>
    <clipPath id="clip-path-17">
      <rect id="Rectangle_2152" data-name="Rectangle 2152" width="23.378" height="19.191" fill="none"/>
    </clipPath>
    <clipPath id="clip-path-18">
      <rect id="Rectangle_2153" data-name="Rectangle 2153" width="20.766" height="18.288" fill="none"/>
    </clipPath>
    <clipPath id="clip-path-19">
      <rect id="Rectangle_2154" data-name="Rectangle 2154" width="43.782" height="34.791" fill="none"/>
    </clipPath>
    <clipPath id="clip-path-20">
      <rect id="Rectangle_2155" data-name="Rectangle 2155" width="45.141" height="41.265" fill="none"/>
    </clipPath>
    <clipPath id="clip-path-21">
      <rect id="Rectangle_2156" data-name="Rectangle 2156" width="28.272" height="44.213" fill="none"/>
    </clipPath>
    <clipPath id="clip-path-22">
      <rect id="Rectangle_2157" data-name="Rectangle 2157" width="34.975" height="31.487" fill="none"/>
    </clipPath>
    <clipPath id="clip-path-23">
      <rect id="Rectangle_2158" data-name="Rectangle 2158" width="35.763" height="31.05" fill="none"/>
    </clipPath>
    <clipPath id="clip-path-24">
      <rect id="Rectangle_2159" data-name="Rectangle 2159" width="18.64" height="21.946" fill="none"/>
    </clipPath>
    <clipPath id="clip-path-25">
      <rect id="Rectangle_2160" data-name="Rectangle 2160" width="36.793" height="30.003" fill="none"/>
    </clipPath>
    <clipPath id="clip-path-26">
      <rect id="Rectangle_2161" data-name="Rectangle 2161" width="14.925" height="65.574" fill="none"/>
    </clipPath>
  </defs>
  <g id="Group_27983" data-name="Group 27983" transform="translate(-605.07 -2521.81)">
    <text id="Cypress" transform="translate(702 2849)" fill="#198754" font-size="45" font-family="CalibanStd, Caliban Std"><tspan x="-49" y="0">Cypress</tspan></text>
    <g id="Group_27826" data-name="Group 27826">
      <g id="Group_27760" data-name="Group 27760" transform="translate(605.07 2521.81)" clip-path="url(#clip-path)">
        <path id="Path_7562" data-name="Path 7562" d="M89.677,16.453c-5.306,1.664-8.578,5.52-11.1,9.81-.18-2.87-.462-5.729-.824-8.559-.01-1.153-.008-2.307.051-3.462.194-3.9.793-8.371-2.6-11.355-.93-.818-2.908-.425-2.827.961.243,4.073.652,8.138,1.253,12.181.29,1.952.672,3.887,1,5.833.031.2.065.4.094.6.02.237.039.474.061.711-.27-.589-.523-1.181-.822-1.756-.91-1.75-1.913-3.99-3.536-5.3a3.113,3.113,0,0,0-4.053-.2c-1.343,1.171-.822,2.908-.155,4.261,1.786,3.62,5.216,6.3,7.11,9.861a13.367,13.367,0,0,1,1.443,7.975c-.693-2.052-1.4-4.1-2.185-6.121C71.731,29.7,70,27.142,67.063,27.4c-.969.088-1.962.8-1.635,1.815.909,2.816,3.329,4.868,4.809,7.431a22.041,22.041,0,0,1,1.339,19.23,93.293,93.293,0,0,0-.844-9.594C70.2,42.6,68.42,37.9,63.3,38.79a1.389,1.389,0,0,0-.709,2.465c.006.01,0,.02.008.029a54.338,54.338,0,0,1,4.948,21.8,1.362,1.362,0,0,0,.576,1.112,49.055,49.055,0,0,1-4.2,6.213c-.215-7.023-3.223-13.806-6.256-20.3-.822-1.76-3.7-.366-2.884,1.378,3.591,7.683,7.446,16.054,5.365,24.554-.452,1.85,2.665,2.714,3.121.846.086-.347.129-.691.194-1.036a1.8,1.8,0,0,0,2.344-.341c2.62-3.217,3.607-7.533,7.1-10.137,2.959-2.209,6.773-3.383,8.562-6.689a1.563,1.563,0,0,0-2.138-2.1c-1.447.758-2.853,1.574-4.231,2.426.331-.783.636-1.574.9-2.379.756-2.336.811-5.379,2.549-7.343,2.812-3.182,8.118-3.28,10.3-7.192A1.564,1.564,0,0,0,86.712,40l-7.9,4c.572-2.436,2.575-4.535,4.576-6.18,2.532-2.085,5.226-3.906,7.4-6.328.877-.975-.47-2.614-1.747-2.23a27.356,27.356,0,0,0-9.142,4.7c1.351-5.872,8.261-10.4,11.521-15.277a1.534,1.534,0,0,0-1.747-2.23" transform="translate(57.04 2.571)" fill="#6e9907"/>
      </g>
      <g id="Group_27762" data-name="Group 27762" transform="translate(716.755 2526.844)" clip-path="url(#clip-path-2)">
        <path id="Path_7563" data-name="Path 7563" d="M89.145,13.532a2.724,2.724,0,0,0-2.087-2,3.7,3.7,0,0,0-1.6.012,3.573,3.573,0,0,0-1.445.762,4.9,4.9,0,0,0-1.521,2.706.792.792,0,0,0-.067.047A38.6,38.6,0,0,0,74.4,23.614q.077-1.665.094-3.329a93.653,93.653,0,0,0-.981-14.209,1.391,1.391,0,0,0-1.7-.965,1.417,1.417,0,0,0-.963,1.7,90.941,90.941,0,0,1,.153,24.246,90.58,90.58,0,0,1-2.248,11.6,10.683,10.683,0,0,0-2.639-6.24,6.472,6.472,0,0,0-6.665-1.782,1.411,1.411,0,0,0-.963,1.7,1.4,1.4,0,0,0,1.7.965,4.321,4.321,0,0,1,.638-.192c.045-.008.092-.014.127-.018.108-.008.217-.016.327-.018s.221,0,.331.01c.037,0,.072.006.108.01.208.043.413.082.615.143.108.033.215.069.319.108l.09.033.049.027c.2.108.4.208.595.331.1.061.19.127.284.19l.039.025.041.039c.168.153.337.3.493.466.08.086.153.174.231.262.02.027.033.039.045.053l.039.057c.141.2.276.407.4.619s.229.433.337.654l.035.069.018.053c.045.114.088.229.131.347A11.2,11.2,0,0,1,65.878,42c.057.266.1.531.143.8l0,.033.012.094c.016.143.031.288.045.431a1.412,1.412,0,0,0,1.382,1.382,1.569,1.569,0,0,0,.8-.278A93.528,93.528,0,0,1,64.805,54.5a89.218,89.218,0,0,1-6.15,12.169,1.382,1.382,0,0,0,2.385,1.394,93.669,93.669,0,0,0,9.937-23.038,95.2,95.2,0,0,0,3.145-17.3,1.267,1.267,0,0,0,1.324-.64A36.7,36.7,0,0,1,84.3,17.068a2.544,2.544,0,0,0,1.3-.106,1.931,1.931,0,0,0,.544-.309,1.522,1.522,0,0,0,.251.1,1.913,1.913,0,0,0,1.018-.043,2.632,2.632,0,0,0,.891-.5,2.78,2.78,0,0,0,.844-2.673" transform="translate(-50.69 0.257)" fill="#506b05"/>
      </g>
      <g id="Group_27764" data-name="Group 27764" transform="translate(605.07 2521.81)" clip-path="url(#clip-path)">
        <path id="Path_7565" data-name="Path 7565" d="M158.423,65.9a90.233,90.233,0,0,1-11.562,1.88c-9.077.46-18.233.28-27.081-1.523.112-.012.225-.022.3-.035.045-.008.086-.022.129-.031,4.625-.47,8.911-2.213,11.885-6.048,1.057-1.363-1.183-3.053-2.481-1.876a20.588,20.588,0,0,1-9.645,4.944c-.29.061-.587.108-.885.153a33.233,33.233,0,0,1-10.143-1.169,1.667,1.667,0,0,0-.174-.018,11.7,11.7,0,0,0-2.007-1.416,27.17,27.17,0,0,0,9.608-4.723c1.5-1.159-.247-3-1.858-2.4l-13.738,5.073c-.151.008-.3.016-.456.022q-1.938-1.22-3.754-2.612c-1.042-.8-2.105-1.627-3.2-2.416a70.151,70.151,0,0,0,8.206-3.953c1.784-1.01.411-3.389-1.514-2.624l-8.572,3.4a12.39,12.39,0,0,0-1.778.838,15.452,15.452,0,0,0-8.846-2.1c-2.06.172-2.185,3.137-.1,2.961a12.158,12.158,0,0,1,5.071.67,1.332,1.332,0,0,0,.086.243c3.055,4.909,3.209,11.292,4.12,16.763.274,1.645,2.563,1.273,3.145.09,1.96-3.971.562-8.179-.709-12.134-.082-.255-.159-.513-.241-.768,2.475,2.244,3.914,5.52,5.187,8.386,1.813,4.081,3.828,8.106,7.922,10.687a1.77,1.77,0,0,0,2.244-.472c2.2-2.485-.634-5.226-2.414-7.057a39.127,39.127,0,0,1-5.056-6.454,55.08,55.08,0,0,0,7.756,3.712c3.577,4.484,5.011,11.574,10.636,14.2,1.459.683,3.376.284,3.938-1.237.582-1.58-.636-3.088-1.67-4.227q-2.83-3.115-5.7-6.2a28.305,28.305,0,0,1,18.993,13.358c.965,1.709,3.759.343,2.884-1.378a34.8,34.8,0,0,0-6.471-8.862c2.741.607,5.181,2.706,7.448,4.137,2.919,1.844,6.387,3.264,9.951,2.22,1.214-.356,1.858-2.056.5-2.7q-3.434-1.628-6.953-3.088l9.9-.407c3.489-.143,7.724-.444,9.034-3.947.392-1.051-.766-2.134-1.927-1.866" transform="translate(82.724 49.032)" fill="#6e9907"/>
        <path id="Path_7566" data-name="Path 7566" d="M55.5,104.876a68.945,68.945,0,0,1-5.635-16.185c-.809-3.834-1.445-8.339-6-9.915-1.1-.382-2.412.721-2.052,1.754q2.986,8.532,6.405,16.925c-.36-.155-.726-.29-1.1-.411a30.676,30.676,0,0,0-4.668-2.408,1.145,1.145,0,0,0-.311-.082,12.921,12.921,0,0,0-2.827-3.828c-.1-.1-.211-.2-.317-.3a39.84,39.84,0,0,1-2.314-4.417c-1.335-3.049-1.79-6.918-4.715-9.132a1.757,1.757,0,0,0-2.579.219c-2.089,3.329-.85,7.063,1.521,9.984A35.382,35.382,0,0,0,35.2,91.138c.235.206.632.535,1.087.936.278.456.552.914.848,1.361a78.418,78.418,0,0,0-8.488-2.667,5.357,5.357,0,0,0-.437-.511,1.293,1.293,0,0,0-.734-1.23q-.678-.346-1.353-.7l-4.106-3.783c-2.391-2.2-5.04-5.764-8.886-5.236a1.528,1.528,0,0,0-1.2,1.02c-.529,2.661,1.228,4.531,3.585,5.917,1.737,1.022,3.554,1.956,5.383,2.87-3.883-.681-7.811-1.177-11.75-1.58C6.275,86.371,2.98,84.959.5,87.248a1.48,1.48,0,0,0,1.055,2.571q3.351.276,6.714.607A30.314,30.314,0,0,0,14.2,92.078a32.814,32.814,0,0,0,8.136.319q1.208.233,2.406.493A25.966,25.966,0,0,1,22.335,94.1c-1.414.676-2.884,1.255-4.333,1.872a22.85,22.85,0,0,0-7.595,4.67,1.421,1.421,0,0,0-.1,2.093c3.507,3.544,9.273-2.314,11.887-4.208,2.632-1.9,4.84-3.806,8.392-2.823,1.98.548,3.914,1.359,5.882,2A25.032,25.032,0,0,0,24.33,108.768,1.538,1.538,0,0,0,26.077,111c4.87-.948,7.46-4.811,10.546-7.971,1.574-1.611,3.427-3.262,5.87-3.611.147-.02.294-.014.441-.027a45.677,45.677,0,0,1,7.106,4.709c.164.137.331.284.5.423-7.323.724-14.074,4.658-17.708,10.591-.887,1.447,1.067,3,2.481,1.876,3.93-3.117,8.32-6.638,13.107-8.609A5.2,5.2,0,0,1,54.58,109.8a22.786,22.786,0,0,1,1.179,3.082,29.126,29.126,0,0,0-15.139,8.245,1.551,1.551,0,0,0,2.2,2.183c4.515-3.391,9.616-7.082,15.793-6.728,0,.067.027.129.031.194.127,1.889,3.385,2,3.256.088-.315-4.648-3.029-8.621-6.4-11.991" transform="translate(0 79.768)" fill="#6e9907"/>
        <path id="Path_7567" data-name="Path 7567" d="M185.677,120.515a13.2,13.2,0,0,0-7.354-5.625,1.174,1.174,0,0,0-.8-1.087,162.668,162.668,0,0,0-32.245-10.544c1.11.018,2.218.049,3.311.076,5.3.123,10.712.078,15.549-2.134a1.413,1.413,0,0,0,.439-2.3c-2.741-2.232-6.309-2.765-9.886-2.624a83.569,83.569,0,0,0-13.176,1.95c-6.491,1.308-13.714,2.655-20.181.815q15.923-4.874,31.516-10.591c1.557-.572.82-2.741-.705-2.778-8.7-.215-16.725,3.023-24.536,6.125a104.531,104.531,0,0,1-20.373,5.986,88.6,88.6,0,0,1,9.545-6.074c2.393-1.31,4.864-2.473,7.35-3.628a21.853,21.853,0,0,0,6.5-4.141,1.475,1.475,0,0,0-1.048-2.559c-10.66-1.292-16.761,8.269-24.119,13.34-4.915,3.387-10.838,5.075-16.888,6.156A41.585,41.585,0,0,0,106.6,78.514c.533-1.672-1.856-2.483-2.927-1.2-5.087,6.095-10.223,12.208-16.35,17.481a59.142,59.142,0,0,1-9.847,6.98,33.726,33.726,0,0,1-4.74,2.275q-1.554.371-3.1.771a9.059,9.059,0,0,1-1.39.051,42.15,42.15,0,0,0,7.893-7.9,59.665,59.665,0,0,0,10.75-18.9c.636-1.852-2.305-2.545-3.1-.842-2.663,5.672-5.52,11.656-9.369,16.913a60.757,60.757,0,0,1-8.649,8.786,32.582,32.582,0,0,1-3.374,2.156,1.417,1.417,0,0,0-.609,1.989c-.566.178-1.136.349-1.7.533A158.192,158.192,0,0,0,29.935,121.03a1.507,1.507,0,1,0,1.506,2.61,156.633,156.633,0,0,1,39.8-16.175A17.78,17.78,0,0,0,73,107.034q6.095-1.481,12.322-2.5a159.792,159.792,0,0,1,32.364-1.846,1.372,1.372,0,0,0,1.1,1.147c8.884,2.41,18.1,3.505,27.138,5.3a96.706,96.706,0,0,1,12.935,3.364,62.68,62.68,0,0,1,11.967,5.868c3.54,2.144,7.26,4.135,11.474,4.335a1.676,1.676,0,0,0,.773.016,15.184,15.184,0,0,0,1.539-.084,1.457,1.457,0,0,0,1.069-2.121" transform="translate(30.431 79.597)" fill="#51700e"/>
        <path id="Path_7568" data-name="Path 7568" d="M47.264,84.864a31.5,31.5,0,0,0-11.727,18.65c-2.185-4.76-3.648-9.665-2.714-15,1.169-6.681,4.554-12.868,5.073-19.676a1.658,1.658,0,0,0-2.716-1.13c-3.992,3.785-5.684,8.637-6.5,13.671-2.88-12.565-.157-25.907,3.82-38.066a1.615,1.615,0,0,0-2.649-1.506A22.962,22.962,0,0,0,23.831,54.4a1.326,1.326,0,0,0-.871,1.245c-.022.8-.035,1.6-.045,2.4A40.337,40.337,0,0,0,19.6,51.77c-1.063-1.629-3.934-.264-2.867,1.371a47.51,47.51,0,0,1,6.436,16.892q.319,5.859,1.016,11.691a30.354,30.354,0,0,0-5.694-5.745l-.027-.033-.006.006c-.11-.084-.217-.174-.329-.258-1.48-1.112-3.123,1.034-2.05,2.248a85.95,85.95,0,0,1,8.993,12.175,23.8,23.8,0,0,1,.875,3.192,1.27,1.27,0,0,0,.677.922,60.052,60.052,0,0,0,3.374,13.475,27.814,27.814,0,0,0-12.079-5.486c-1.427-.235-2.91,1.292-1.655,2.412,3.908,3.483,9.624,4.239,13.628,7.523,4.039,3.313,5.479,8.4,6.8,13.011.525,1.835,3.681,1.177,3.156-.664-.515-1.8-1.059-3.66-1.739-5.469,1,.119,2.164-.578,1.909-1.756-2.383-10.918,4-21.393,9.722-30.549.905-1.447-1.061-2.955-2.469-1.866" transform="translate(16.42 43.2)" fill="#51700e"/>
        <path id="Path_7569" data-name="Path 7569" d="M35.2,94.35a1.691,1.691,0,0,0-2.034.55l-.086.155a19.747,19.747,0,0,0-.893-5.526,1.666,1.666,0,0,0-1.942-1.1,1.491,1.491,0,0,0-1.214,1.768,17.925,17.925,0,0,1,.255,9.7,1.848,1.848,0,0,0,2.121,2.213,3.228,3.228,0,0,0,2.285-1.339,14.974,14.974,0,0,0,2.4-4.662A1.434,1.434,0,0,0,35.2,94.35" transform="translate(30.254 92.26)" fill="#51700e"/>
        <path id="Path_7570" data-name="Path 7570" d="M60.76,86.4a32.357,32.357,0,0,0-14.014,16.91c-.748-3.064-1.355-6.154-1.85-9.256a43.238,43.238,0,0,0,11.695-8,1.416,1.416,0,0,0,.1-2.083,1.751,1.751,0,0,0-2.289-.088,40.114,40.114,0,0,1-9.947,7.043c-.341-2.587-.625-5.181-.8-7.783a60.694,60.694,0,0,0,12.208-8.886,1.419,1.419,0,0,0,.1-2.087,1.754,1.754,0,0,0-2.289-.088,57.343,57.343,0,0,1-10.192,7.666c-.082-2.185-.117-4.37-.08-6.555a65.568,65.568,0,0,0,10.616-6.532,1.392,1.392,0,0,0,.1-2.083,1.775,1.775,0,0,0-2.287-.088A59.752,59.752,0,0,1,43.5,69.742c.139-2.97.362-5.937.726-8.895A20.866,20.866,0,0,0,55.8,54.309a1.406,1.406,0,0,0-.515-2.032,1.762,1.762,0,0,0-2.232.468,17.227,17.227,0,0,1-4.611,3.528,17.7,17.7,0,0,1-3.781,1.449q.218-1.444.468-2.88a1.5,1.5,0,0,0,.3-.4,21.238,21.238,0,0,0,12.653-7.491,1.412,1.412,0,0,0-.515-2.032,1.749,1.749,0,0,0-2.232.468,17.534,17.534,0,0,1-8.619,5.69q2.79-7.419,5.578-14.84c.674-1.794-2.43-2.637-3.1-.842q-2.075,5.524-4.153,11.049c-.617-2.1-1.149-4.216-1.576-6.356a1.648,1.648,0,0,0-1.942-1.1A1.5,1.5,0,0,0,40.3,40.749a75.21,75.21,0,0,0,2.688,9.874,1.659,1.659,0,0,0,.286.5c-.123.327-.247.654-.37.981a1.49,1.49,0,0,0-.5,1.359,1.212,1.212,0,0,0,.533,1.5c-.145.826-.288,1.651-.411,2.479l-.213-.278c-.129-.178-.258-.354-.384-.531q-.331-.469-.648-.944-.7-1.058-1.306-2.156c-.394-.709-.76-1.433-1.1-2.164-.37-.807-.564-1.284-.862-2.1a1.674,1.674,0,0,0-1.944-1.106c-.781.2-1.5.987-1.212,1.768A35.178,35.178,0,0,0,40.181,59.5a1.419,1.419,0,0,0,1.13.456,1.426,1.426,0,0,0,.762.907q-.616,5.092-.8,10.213a.988.988,0,0,0-.067.094q-2.9-5.411-5.8-10.818c-.916-1.709-3.781-.333-2.867,1.369q3.106,5.791,6.213,11.582a1.61,1.61,0,0,0,2.463.376c-.033,2.469.029,4.94.143,7.409a1.354,1.354,0,0,0-.229,1.635,1.448,1.448,0,0,0,.321.37c.01.133.01.266.018.4a46.5,46.5,0,0,0-5.357-9.381c-1.151-1.561-4.028-.2-2.867,1.369a43.734,43.734,0,0,1,7.039,14.27c1.375,4.973.993,10.405,3.266,15.145-2.332-1.739-4.7-3.436-7.125-5.067A.991.991,0,0,0,35.7,98.1,20.615,20.615,0,0,0,33.13,85.136c-.644-1.122-2.555-.208-1.911.914a18.744,18.744,0,0,1,2.361,11.907c-2.788-1.8-5.618-3.552-8.521-5.208-1.177-.67-2.324,1-1.145,1.668,2.224,1.267,4.406,2.587,6.565,3.94a24.194,24.194,0,0,1-5.6-.942.991.991,0,1,0-.617,1.882,26.533,26.533,0,0,0,9.185.989c4.662,3.06,9.179,6.295,13.489,9.761,1.032.83,2.63-.495,1.59-1.331-.145-.116-.292-.229-.435-.343-.211-.713-.4-1.435-.593-2.152a.892.892,0,0,0,.785-.662A29.958,29.958,0,0,1,61.763,88.134a1,1,0,1,0-1-1.739" transform="translate(24.445 35.902)" fill="#6e9907"/>
        <path id="Path_7571" data-name="Path 7571" d="M149.368,103.634c-7.114-6.127-17.056-6.745-26.343-7.047a1.65,1.65,0,0,0-.969.247,79.647,79.647,0,0,0-6.781-5.539,30.931,30.931,0,0,1,26.267,2.148c1.749,1.032,3.466-1.467,1.717-2.5a34.534,34.534,0,0,0-30.332-1.935,1.627,1.627,0,0,0-.486.315c-1.794-1.2-3.658-2.309-5.557-3.37A39.77,39.77,0,0,1,133.7,84.686a1.487,1.487,0,1,0,.924-2.825A43.183,43.183,0,0,0,103.6,84.136c-.029.012-.047.031-.074.043q-2.633-1.315-5.375-2.451a1.7,1.7,0,0,0,.668-.327,33.892,33.892,0,0,1,27.959-6.279c2.015.446,2.957-2.375.926-2.825a37.538,37.538,0,0,0-31.078,6.931A1.243,1.243,0,0,0,96.341,81,82.767,82.767,0,0,0,82.5,76.954a88.189,88.189,0,0,0-23.532-1.49c-2.054.149-2.177,3.1-.1,2.947a84.561,84.561,0,0,1,39.648,6.626,76.1,76.1,0,0,1,28.9,21.955,68.775,68.775,0,0,1,9.863,16.69c.025.057.067.084.094.135a15.716,15.716,0,0,0,.45,3.235,6.373,6.373,0,0,0,1.948,3.288,2.288,2.288,0,0,0,3.147-.061,2.434,2.434,0,0,0,.425-2.279A15.41,15.41,0,0,0,142,124.338a16.384,16.384,0,0,0-2.553-3.6,69.528,69.528,0,0,0-5.788-10.479,13.7,13.7,0,0,1,11.5,4.212,1.755,1.755,0,0,0,2.289.088,1.406,1.406,0,0,0,.1-2.083,17.228,17.228,0,0,0-15.553-4.954,2.249,2.249,0,0,0-.225.063,74.763,74.763,0,0,0-6.847-7.985c7.766.284,16.175.956,22.061,6.025,1.508,1.3,3.9-.691,2.385-1.995" transform="translate(59.878 74.549)" fill="#6e9907"/>
        <path id="Path_7572" data-name="Path 7572" d="M70.5,87.332a67.673,67.673,0,0,1-6.452-11.247,18.615,18.615,0,0,1,1.073-3.636c1.427-3.6,3.327-7.01,3.552-10.9.09-1.561-2.085-1.925-2.992-.824a26.479,26.479,0,0,0-4.5,7.891,10.257,10.257,0,0,1,.243-6.058c.83-2.177,1.972-4.274,2.986-6.383q1.689-3.51,3.378-7.023c.642-1.335-1.594-2.522-2.649-1.506a29.158,29.158,0,0,0-7.065,10.626c-.123-.509-.239-1.02-.356-1.531a1.281,1.281,0,0,0,.031-.219A33.842,33.842,0,0,1,60.166,44.59c1.433-3.575,3.295-7.01,1.723-10.82-.431-1.042-2.26-1-2.808-.1A31.852,31.852,0,0,0,55.2,43.5q-.561-3.455-1.087-6.916a1.306,1.306,0,0,0,.1-1.422c-.092-.18-.17-.364-.251-.546-.01-1.386.035-2.769.125-4.157.112-1.743-.1-3.56-1.87-4.564A1.657,1.657,0,0,0,49.734,27.1a15.131,15.131,0,0,0,.977,8.032,47.748,47.748,0,0,0,.4,4.856,43.075,43.075,0,0,0,1.21,5.886q.141.825.282,1.645c-.172-.331-.325-.67-.507-1a24.012,24.012,0,0,0-6.91-7.9c-1.234-.889-3.176.75-2.293,1.935,3.519,4.719,7.1,9.553,9.63,14.779.051.112.1.225.161.335a37.659,37.659,0,0,1,2.042,5.234,22.541,22.541,0,0,1-9.24-7.858c-.652-.987-2.7-1.1-2.984.264-.634,3.053,1.745,5.2,4.343,6.767,3.293,1.991,6.644,3.908,9.97,5.856q.678,2.232,1.455,4.439a14.626,14.626,0,0,1,.247,1.559,45.947,45.947,0,0,0-14.908-7.108,1.546,1.546,0,0,0-1.895,2.1c1.337,3.256,4.746,5.138,8.118,6.4,3.548,1.324,7.607,2,10.272,4.717a1.46,1.46,0,0,0,.454.307,9.077,9.077,0,0,0,.239,1.993,24.567,24.567,0,0,0-6.23-.973c-2.348-.055-7.554,0-7.482,3.182.076,3.573,6.289,2.62,8.688,2.365,3.25-.347,6.82-.858,9.6,1.093a1.631,1.631,0,0,0,.617.272c.529.815,1.075,1.625,1.645,2.42,1.128,1.582,4,.221,2.867-1.369" transform="translate(43.412 26.786)" fill="#6e9907"/>
        <path id="Path_7573" data-name="Path 7573" d="M100.825,53.009a17.5,17.5,0,0,0-6.557,2.07c-1.886.948-3.859,2.124-6.05,2.348a97.006,97.006,0,0,0,4.511-9.13c.074-.17.135-.343.206-.513a1.3,1.3,0,0,0,.9-.813,23.058,23.058,0,0,0,8.41-4.95,1.5,1.5,0,0,0-1.459-2.52A26.613,26.613,0,0,0,95.3,41.58q1.288-3.783,2.246-7.654a1.366,1.366,0,0,0-.029-.768,1.249,1.249,0,0,0,.231-.693c.18-.5.352-1,.5-1.5a9.813,9.813,0,0,0,.039-6.5,2.4,2.4,0,0,0-3.137-1.453c-1.251.548-1.3,1.829-1.306,2.927a30.628,30.628,0,0,0,.613,6.266,26.5,26.5,0,0,0-1.312,4.619,1,1,0,0,0,.1.6c-.1.345-.2.693-.307,1.036-.055-.936-.121-1.87-.233-2.8-.313-2.606-.877-5.739-3.509-7.262a1.7,1.7,0,0,0-2.41.83c-1.087,2.955.672,5.7,1.9,8.361a21.475,21.475,0,0,1,1.143,3.2c.029.6.055,1.208.1,1.811a7.161,7.161,0,0,0,.529,2.773q-1.7,4.206-3.8,8.263C86.183,48.566,85,43.051,87.875,38.445c1.024-1.645-1.717-3.215-2.747-1.561a17.643,17.643,0,0,0-2.287,10.368c.092,1.958.358,3.906.544,5.856s.108,3.867.123,5.819c0,.088.02.17.029.253a98.114,98.114,0,0,1-8.664,12.1A41.418,41.418,0,0,1,78.958,45.8c.875-1.694-1.862-3.278-2.747-1.561a44.458,44.458,0,0,0-4.034,30.124c-1.3,1.422-2.624,2.818-4.008,4.171-.7.683-1.416,1.347-2.136,2.011-.022-.345-.039-.6-.041-.662q-.1-3.427.086-6.855a82.412,82.412,0,0,1,1.948-13.916c.419-1.841-2.681-2.7-3.1-.842a87.758,87.758,0,0,0-1.96,12.782q-.242,3.185-.241,6.381a38.812,38.812,0,0,0,.213,5.866c-2.166,1.846-4.409,3.62-6.734,5.3-1.635,1.181.568,3.344,2.193,2.171,2.283-1.649,4.48-3.393,6.608-5.2a7.061,7.061,0,0,0,1.882.053,60.285,60.285,0,0,0,6.471-.9A58.9,58.9,0,0,0,85.333,81,52.9,52.9,0,0,0,91.5,77.858c1.917-1.145,3.6-2.42,4.4-4.439.705-1.784-2.4-2.626-3.1-.842-.717,1.813-3.092,2.884-4.807,3.8a54.714,54.714,0,0,1-5.886,2.72,55.714,55.714,0,0,1-13.434,3.38c-.078.01-.157.016-.237.025q3.424-3.179,6.524-6.632A94.837,94.837,0,0,0,94.83,68.6c1.827-.916.323-3.526-1.5-2.61a90.931,90.931,0,0,1-14.946,5.9,102.571,102.571,0,0,0,7.429-10.405,3.366,3.366,0,0,0,.961-.045c2.079-.421,4.141-1.247,6.162-1.86,2.1-.636,4.216-1.243,6.305-1.911,1.559-.5,3.252-1.41,3.16-3.135a1.562,1.562,0,0,0-1.572-1.517" transform="translate(58.059 23.824)" fill="#6e9907"/>
        <path id="Path_7574" data-name="Path 7574" d="M216.077,90.584c-4.666-3.493-10.362-4.425-16.134-5.2q-3.21-.757-6.438-1.486c2.1-.8,4.155-1.682,6.156-2.671a59.121,59.121,0,0,0,5.465-3.031c1.561-.989,2.859-2.215,2.933-4.034a1.634,1.634,0,0,0-2.373-1.349c-6.916,3.08-13.362,9.2-21.656,8.288a1.482,1.482,0,0,0-1.265.515c-5.89-1.171-11.811-2.205-17.757-3,2.831-1.662,5.721-3.241,8.68-4.713,2.318-1.155,4.676-2.232,7.055-3.278a14.592,14.592,0,0,0,5.4-3.573,1.439,1.439,0,0,0-.909-2.2c-5.191-.883-9.882,1.382-13.747,4.368-3.71,2.865-6.914,6.691-11.625,8.257a1.7,1.7,0,0,0-.7.437c-4.83-.517-9.673-.873-14.523-1.006,1.443-1,2.955-1.923,4.492-2.806,2.271-1.306,4.586-2.549,6.818-3.912,1.083-.662,2.154-1.347,3.186-2.077a9.524,9.524,0,0,0,2.8-2.444,2.064,2.064,0,0,0-.4-2.722A3.378,3.378,0,0,0,158,62.817a26.41,26.41,0,0,0-6.062,3.671c-4.184,3.239-7.672,7.284-12.461,9.835a1.58,1.58,0,0,0-.593.531c-3.979.039-7.961.215-11.944.593.155-.121.309-.243.462-.364l4.016-3.182q4.016-3.182,8.03-6.364c1.619-1.281,5.635-3.481,4.333-5.943-1.341-2.534-5.573-.157-7.227.846-5.786,3.507-8.931,9.275-13.781,13.638a1.317,1.317,0,0,0-.472,1.212,3.582,3.582,0,0,0-.55.752q-1.389.19-2.778.409c-1.713.274-3.415.593-5.11.944q1.377-1.763,2.757-3.524,4.225-5.4,8.453-10.8c1.21-1.547-1.541-3.1-2.747-1.564q-3.541,4.528-7.082,9.052-1.714,2.192-3.427,4.38l-1.829,2.336-.914,1.169-.057.074q-4.887,1.248-9.618,2.947c7.744-11.327,18.752-20.179,30.306-28.278,10.356-4.2,23.13-2.849,34.044-4.721a1.467,1.467,0,0,0-.315-2.91l-2.363.076a1.66,1.66,0,0,0-1.075.407c-7.564.954-15.564.883-23.062,2.191q1.024-.693,2.048-1.378c.037-.016.076-.027.114-.045a52.958,52.958,0,0,0,5.565-3.215,25.582,25.582,0,0,1,2.62-.707,81.994,81.994,0,0,1,10.7-1.429c4.073-.323,8.159-.444,12.244-.439a51.29,51.29,0,0,0,10.673.253h.016v0c.137-.014.274-.02.411-.035,1.868-.221,1.467-2.835-.317-2.91-3.62-.155-7.245-.247-10.869-.245-1.87-.213-3.738-.448-5.6-.615-.347-.031-.695-.051-1.042-.076,9.275-1.506,18.764-.063,27.961,1.4,1.472.235,2.845-1.253,1.655-2.41a13.284,13.284,0,0,0-4.576-2.857c2.318-.047,4.637-.051,6.955-.127a35.668,35.668,0,0,0,6.51-.511c1.649-.372,3.156-1.645,2.538-3.319-.54-1.457-2.361-1.846-3.867-1.733-2.412.182-4.836.679-7.219,1.053q-3.615.564-7.217,1.187c-1.878.325-3.75.679-5.622,1.026a38.182,38.182,0,0,0-4.919.94l-1.564.315q-2.37.162-4.729.409l.014-.014a1.259,1.259,0,0,0,.276-.08,50.454,50.454,0,0,0,10.023-7.409c1.433-1.378,2.923-3.064,2.851-5.075a2.5,2.5,0,0,0-1.809-2.549c-1.216-.286-2.557.6-3.6,1.073a1.33,1.33,0,0,0-.828.971,1.606,1.606,0,0,0-.309.294c-.446.636-.9,1.275-1.353,1.913-4.3,5.586-10.671,9.336-17.389,12.4a61.5,61.5,0,0,0,6.258-7.752c1.247-1.844,2.641-3.865,2.432-6.121a2.34,2.34,0,0,0-2.134-2.291c-1.3-.057-2.594.877-3.581,1.545a1.292,1.292,0,0,0-.437,1.476,43.294,43.294,0,0,1-5.594,9.516,46.447,46.447,0,0,1-7.578,7.319c-1.672.65-3.3,1.38-4.907,2.148a54.262,54.262,0,0,0,7.6-11.449c.591-1.208,1.143-2.434,1.621-3.683a3.988,3.988,0,0,0,.129-3.06c-1.247-2.724-5.766-1.3-4.991,1.514a1.306,1.306,0,0,0-.2.444c-2.434,11.4-13.1,18.672-21.307,26.993q-2.808,2.2-5.471,4.523c-1.737,1.523-3.419,3.1-5.079,4.689q.766-1.977,1.4-3.99c.014-.033.043-.053.055-.09.486-1.4.92-2.82,1.328-4.241.029-.033.065-.055.094-.092l13.718-18.315c1.175-1.568-1.574-3.127-2.747-1.561L118.628,46.16c.482-2.585.83-5.191,1.059-7.8l.924-1.668q1.239-2.241,2.477-4.478,2.526-4.559,5.048-9.119a1.432,1.432,0,0,0-.515-2.03,1.729,1.729,0,0,0-2.232.468l-5.377,9.718a81.49,81.49,0,0,0-.529-9.034c.388-2.968,2.248-5.588,3.9-8.167C124.7,12,128.1,7.106,123.971,5.8a1.713,1.713,0,0,0-1.846.636,59.6,59.6,0,0,0-3.855,8.149c-.28-1.343-.566-2.688-.916-4.02a1.4,1.4,0,0,0-.785-.944c-.035-.3-.067-.6-.1-.905,0-.029-.016-.055-.022-.084.016-.029.027-.057.043-.086,1.253-2.1,3.27-4.135,2.354-6.693a1.69,1.69,0,0,0-2.332-.975,6.6,6.6,0,0,0-2.9,2.679A11.429,11.429,0,0,0,111.287.871c-.967-.815-2.833-.425-2.812.954a6.725,6.725,0,0,0,3.043,5.506,1.636,1.636,0,0,0,.313.18c.008.037.008.074.014.11a1.417,1.417,0,0,0-.632,1.4c.472,3.19.934,6.407,1.345,9.635a34.878,34.878,0,0,1-2.724-3.55c-1.739-2.52-3.493-5.005-6.195-6.763a1.618,1.618,0,0,0-2.448,1.59c1.723,6.011,6.9,10.184,11.969,14,.243,2.391.456,4.783.576,7.176a55.469,55.469,0,0,1-6.973-7.358,1.743,1.743,0,0,0-2.289-.088,1.415,1.415,0,0,0-.1,2.083,56.382,56.382,0,0,0,9.483,9.491,80.961,80.961,0,0,1-.6,11.4,82.294,82.294,0,0,0-6.967-10.783,1.76,1.76,0,0,0-2.187-.621,1.422,1.422,0,0,0-.681,1.991q1.306,1.7,2.514,3.462c-.031.039-.063.069-.092.112A47.77,47.77,0,0,0,101.9,48.13c-.057.1-.112.208-.17.313a1.464,1.464,0,0,0-.129.149,1.342,1.342,0,0,0-.2.468c-.069.131-.141.26-.211.39-.225.421-.454.842-.679,1.263-.309-1.625-.685-3.239-1.14-4.84a1.451,1.451,0,0,0,0-.388,22.264,22.264,0,0,1,1.157-11.5l2.485-4.9a1.586,1.586,0,0,0-2.747-1.561A26.293,26.293,0,0,0,97.5,32.979l-1.766,3.477c-.421-.852-.871-1.69-1.339-2.52a1.373,1.373,0,0,0,.272-1.077,14.166,14.166,0,0,1,.345-5.88,29.018,29.018,0,0,1,3.2-6.1c1.12-1.637-1.5-3.047-2.747-1.564a17.856,17.856,0,0,0-3.558,6.8c-.145.386-.276.779-.4,1.169a41.414,41.414,0,0,0-9.675-12.962c-1.318-1.189-3.393.151-2.626,1.682q2.839,5.681,6.154,11.137c-.55-.384-1.091-.779-1.658-1.145-2.71-1.741-7.319-4.124-10.129-1.187a1.4,1.4,0,0,0-.1,2.083c2.179,1.766,4.791,2.034,7.562,2.444,2.385.352,4.327,1.081,5.723,2.941a20.586,20.586,0,0,1,2.3,4.182,18.261,18.261,0,0,0-9.189-2.389,1.469,1.469,0,0,0-.509,2.886,46.784,46.784,0,0,1,12.866,6.362c.08.116.166.229.241.347a11.866,11.866,0,0,1,1.948,6.726l0,.119c-.811-.717-1.662-1.4-2.542-2.05a22.666,22.666,0,0,0-5.567-3.413c-.065-.033-.127-.072-.192-.1l-.006.012c-.131-.055-.255-.123-.388-.176-1.666-.662-2.923,1.88-1.32,2.663a35.246,35.246,0,0,1,6.111,3.81c4.905,4.654,6.542,11.7,5.682,18.221a28.575,28.575,0,0,0-9.935-13.375l-.027-.027,0,0c-.112-.084-.219-.172-.331-.255-1.439-1.044-3.3,1.075-2.05,2.248a30.721,30.721,0,0,1,9.9,21.031,1.436,1.436,0,0,0,.865,1.267c-.533,1.335-1.106,2.655-1.758,3.943a1.442,1.442,0,0,0,.515,2.032,1.913,1.913,0,0,0,1.778-.016,1.725,1.725,0,0,0,2.322,1.063A96.04,96.04,0,0,1,108.109,83.8a1.891,1.891,0,0,0,.875.213c3.863,5.281,8.515,10.861,15.6,12.51a1.545,1.545,0,0,0,1.9-2.1c-1.226-2.632-4.488-3.9-6.884-5.5a42.462,42.462,0,0,1-3.667-2.733q-.929-.776-1.811-1.6a5.1,5.1,0,0,1-.642-.636,1.393,1.393,0,0,1-.125-.194,1.38,1.38,0,0,0,.123-1.261c2.994-.652,6.019-1.165,9.06-1.572a7.543,7.543,0,0,0,1.629.679l.1.031a58.5,58.5,0,0,0,6.195,5.065c1.776,1.255,5.633,4.37,7.09,1.055,1.093-2.485-2.4-4.672-4.347-5.772a27.581,27.581,0,0,0-3.887-1.764c3.045-.239,6.1-.364,9.171-.4a1.487,1.487,0,0,0,.564.456l.474.233a2.579,2.579,0,0,0,.495.241q4.427,2.164,8.852,4.331c2.982,1.457,6,3.425,9.532,3.1a1.52,1.52,0,0,0,1.253-1.392c.159-2.567-2.634-4.081-4.77-5.2a30.556,30.556,0,0,0-3.06-1.378c2.019.137,4.037.317,6.05.519a1.535,1.535,0,0,0,1.441,1.022c.946.082,1.9.206,2.847.364a1.648,1.648,0,0,0,.421.264,53.857,53.857,0,0,1,18.266,12.672c.991,1.061,3.342.082,2.769-1.328A21.8,21.8,0,0,0,173.5,82.864q4.571.776,9.072,1.684c.206.041.411.088.617.131,1.337,2.093,3.777,3.331,6.148,4.521q5.39,4.559,10.775,9.122c1.261,1.067,3.64-.163,2.626-1.684a27.918,27.918,0,0,0-8.7-8.324c-.7-.429-1.431-.809-2.164-1.179,2.185.394,4.423.666,6.653.954q2.753.653,5.5,1.316a1.518,1.518,0,0,0,.983.928q4.792,1.674,9.741,2.914a1.5,1.5,0,0,0,1.32-2.663M107.886,43.66a82.374,82.374,0,0,1,4.3,7.738,1.116,1.116,0,0,0,.206.28q-.5,2.376-1.2,4.729a20.322,20.322,0,0,0-6.16-7.437l2.851-5.31m-6.4,17.033a1.522,1.522,0,0,0,.307-.687,42.142,42.142,0,0,1,2.04-8.1,16.844,16.844,0,0,1,3.885,4.721,1.847,1.847,0,0,0-.423.356,75.028,75.028,0,0,0-5.933,7.881c.1-1.39.135-2.78.125-4.171M100.1,73.348c.713-1.414,1.486-2.8,2.3-4.173q3.562-4.491,6.71-9.24a15.931,15.931,0,0,1,.55,2.506,1.143,1.143,0,0,0,.476.756c-.057.135-.108.272-.168.4a1.205,1.205,0,0,0,.815,1.684q-2.434,2.45-4.8,4.954a1.459,1.459,0,0,0-.411.881c-.621.64-1.261,1.263-1.864,1.921A82.3,82.3,0,0,0,98.29,79.6a54.631,54.631,0,0,0,1.813-6.252" transform="translate(76.253 0.468)" fill="#6e9907"/>
      </g>
      <g id="Group_27766" data-name="Group 27766" transform="translate(754.374 2522.728)" clip-path="url(#clip-path-4)">
        <path id="Path_7575" data-name="Path 7575" d="M192.793,32.719q-21.708,1.793-43.278,4.989a110.19,110.19,0,0,0-20.422,4.805c-6.377,2.246-12.58,5-18.721,7.816A67.237,67.237,0,0,0,96.006,58.7,120.11,120.11,0,0,0,97.543,8.89C97.165,6.8,96.83,4.562,95.65,2.749A5.553,5.553,0,0,0,90.835.008c-1.055.061-1.116,1.719-.049,1.655,3.977-.235,4.676,5,5.189,7.858a115.825,115.825,0,0,1,1.5,11.9,118.972,118.972,0,0,1-.64,23.849A116.694,116.694,0,0,1,94.33,58.6a.828.828,0,0,0,.589,1.008c-.039.035-.08.067-.119.1a.82.82,0,0,0-1,.329c-.227.415-.456.83-.683,1.247-.121.119-.243.235-.362.358a.8.8,0,0,0-.227.713l-.552,1.006a.829.829,0,1,0,1.406.879q.533-.975,1.069-1.95c4.231-4.151,9.438-7.07,14.764-9.6,5.97-2.835,12.054-5.529,18.247-7.842A103.284,103.284,0,0,1,147.5,39.689c7.027-1.116,14.088-2.038,21.151-2.882q12.021-1.438,24.088-2.432c1.051-.086,1.114-1.743.049-1.655" transform="translate(-55.346 -0.917)" fill="#587507"/>
        <path id="Path_7576" data-name="Path 7576" d="M114,12.75a3.481,3.481,0,0,0-2.181-1.772,2.811,2.811,0,0,0-2.665.638.829.829,0,0,0,1.122,1.22.712.712,0,0,1,.3-.221l.041-.018.037-.01a1.776,1.776,0,0,1,.206-.047l.059-.01c.012,0,.031,0,.072,0a2.263,2.263,0,0,1,.235.012l.114.02c.072.018.143.037.213.061a1.529,1.529,0,0,1,.6.386,2.542,2.542,0,0,1,.546.867,6.958,6.958,0,0,1-.117,4.6.829.829,0,0,0,1.588.474,9.615,9.615,0,0,0,.5-3.235A6.482,6.482,0,0,0,114,12.75" transform="translate(-35.644 10.443)" fill="#587507"/>
        <path id="Path_7577" data-name="Path 7577" d="M140.742,12.27a9.076,9.076,0,0,0-1.891-2.446.857.857,0,0,0-1.1-.059,6.719,6.719,0,0,0-.632-.313,7.279,7.279,0,0,0-4.625-.135c-1.678.419-3.315,1.042-4.956,1.584-.867.286-3.231,1.312-3.775.088-.033-.11-.065-.219-.1-.329a.829.829,0,0,0-1.615.372,2.285,2.285,0,0,0,.125.472,2.6,2.6,0,0,0-1.5-1.022c-2.309-.625-4.022,1.185-5.312,2.818-.66.836.748,1.707,1.4.879.777-.985,2.424-2.978,3.881-1.911.666.491.54,1.58.472,2.3a11.787,11.787,0,0,1-.585,2.681c-1.157,3.45-3.636,6.305-6.227,8.78a.833.833,0,0,0,.948,1.343,76.871,76.871,0,0,0,11.1-6.877q2.6-1.938,5.034-4.1c1.5-1.328,2.945-2.939,4.848-3.681.9-.349,2.234-.548,2.115.811-.094,1.087-.938,2.044-1.277,3.068s1.255,1.486,1.588.472a23.8,23.8,0,0,0,1.277-2.986,4.216,4.216,0,0,0,.065-.621.807.807,0,0,0,.73-1.187m-7.574.368c-1.888,1.451-3.564,3.176-5.414,4.678a73.583,73.583,0,0,1-6.052,4.423c-.914.595-1.839,1.163-2.775,1.719a17.377,17.377,0,0,0,3.691-7.648,10.377,10.377,0,0,0,.174-2.263q.472,1.625.946,3.248c.3,1.022,1.913.654,1.615-.372l-.039-.129a.789.789,0,0,0,.213-.147l.022-.022a.808.808,0,0,0,.137-.2l.018-.037a.826.826,0,0,0,.067-.227l0-.035a.772.772,0,0,0,0-.247.826.826,0,0,0-.067-.233l-.012-.033a.745.745,0,0,0-.131-.186l-.031-.031a.759.759,0,0,0-.2-.129l-.039-.012a.872.872,0,0,0-.286-.049.925.925,0,0,0-.151.014c-.149-.517-.3-1.036-.454-1.553a3.592,3.592,0,0,0,.85.041,10.11,10.11,0,0,0,2.4-.611q1.37-.451,2.737-.9c1.617-.533,3.389-1.255,5.124-1a3.956,3.956,0,0,1,.811.219,10.084,10.084,0,0,0-3.16,1.719" transform="translate(-30.251 8.484)" fill="#587507"/>
        <path id="Path_7578" data-name="Path 7578" d="M125.332,11.8c-1.065,0-1.12,1.655-.049,1.655s1.12-1.655.049-1.655" transform="translate(-19.344 11.397)" fill="#587507"/>
        <path id="Path_7579" data-name="Path 7579" d="M98.975,55.741a.844.844,0,0,0-.3.055c-.231-6.8-2.5-13.4-4.932-19.717-2.616-6.785-5.228-13.679-9.03-19.909a42.946,42.946,0,0,0-7.554-9.383c-.783-.715-2.007.4-1.22,1.122,5.191,4.754,8.717,10.9,11.576,17.266,1.439,3.2,2.724,6.467,4,9.733A109.533,109.533,0,0,1,95.548,46.55,37.5,37.5,0,0,1,96.9,59.841c-.1,1.061,1.555,1.108,1.658.049.082-.844.117-1.686.129-2.526a.932.932,0,0,0,.235.033c1.065,0,1.12-1.655.049-1.655" transform="translate(-70.3 5.927)" fill="#587507"/>
        <path id="Path_7580" data-name="Path 7580" d="M132.245,32.281a.787.787,0,0,0-.155,0,6.148,6.148,0,0,0-.969-.4c-2.453-.775-5.079-.245-7.521.286a.829.829,0,0,0,.372,1.615,15.4,15.4,0,0,1,5.794-.529,4.813,4.813,0,0,1,1.815.617,4.13,4.13,0,0,0,.652,1.153,3.91,3.91,0,0,1-.5,1.435.84.84,0,0,0,.889,1.247,2.75,2.75,0,0,0-.378-5.428" transform="translate(-20.938 31.958)" fill="#587507"/>
        <path id="Path_7581" data-name="Path 7581" d="M119.114,32.734a3.2,3.2,0,0,0-1.1-1.255c-.039-.037-.074-.076-.114-.11a1.155,1.155,0,0,0-.427-.229A10.328,10.328,0,0,0,116,30.507a.837.837,0,0,0-1.032.558.849.849,0,0,0,.558,1.03c.235.084.466.174.695.268l.029.012.02.01c.061.031.125.059.186.092.1.051.2.106.3.164.065.037.127.082.19.125l.114.129,0,.01.061.1c.045.08.082.161.119.243l.01.022c.014.041.027.08.037.121.025.086.047.176.063.266.008.045.012.092.02.137,0,.1.01.192.008.288s-.012.182-.02.272v.014l-.02.1q-.031.132-.074.264c-.016.047-.035.094-.051.141s-.018.067-.014.069a.588.588,0,0,1-.039.082l-.018.025-.008.012-.031.033-.161.18c-.108.119-.221.231-.331.345a.841.841,0,0,0-.049,1.171.85.85,0,0,0,1.169.049,3.056,3.056,0,0,0,.773-.865,4.819,4.819,0,0,0,.621-1.012,2.72,2.72,0,0,0-.018-2.234" transform="translate(-29.325 30.885)" fill="#587507"/>
        <path id="Path_7582" data-name="Path 7582" d="M198.616,61.006a169.678,169.678,0,0,0-26.163-7.521,28.836,28.836,0,0,0,14.8-8.478,34.4,34.4,0,0,0,3.906-4.915c.587-.893-.82-1.77-1.4-.879-4.817,7.337-12.894,13.107-21.926,13.1a.808.808,0,0,0-.495.157q-4.881-.911-9.79-1.649-10.442-1.585-20.959-2.643a174.963,174.963,0,0,0-21.229-1q-3,.064-6,.286a58.908,58.908,0,0,0,7.362-5.547l5.4-4.4q1.324-1.076,2.649-2.154a4.776,4.776,0,0,0,1.75-2.081,3.081,3.081,0,0,0-2.265-3.861c-1.036-.19-1.525,1.4-.474,1.588a1.443,1.443,0,0,1,1.216,1.447c-.025.891-1.161,1.537-1.772,2.032q-2.912,2.37-5.827,4.74c-1.848,1.5-3.679,3.025-5.549,4.5a21.4,21.4,0,0,1-5.7,3.464.93.93,0,0,0-.619.632,90.168,90.168,0,0,0-9.191,1.506,68.51,68.51,0,0,0,7.581-8.3c.754-.946,1.5-1.9,2.238-2.863a7.827,7.827,0,0,0,1.684-2.827,2.312,2.312,0,0,0-.942-2.583,3.987,3.987,0,0,0-2.923-.213.829.829,0,0,0,.372,1.615c.544-.112,1.841-.415,1.931.441.082.785-.721,1.639-1.159,2.209-1.257,1.631-2.518,3.262-3.826,4.852a53.012,53.012,0,0,1-8.6,8.559c-.229.061-.46.121-.689.184-1.024.288-.656,1.9.374,1.615.045-.012.092-.022.137-.037a.784.784,0,0,0,.364.681c4.733,3.225,9.53,6.493,13.344,10.82a6.124,6.124,0,0,1,1.149,1.5c.3.707-.521.507-.971.415a20.057,20.057,0,0,1-3.442-1.059,21,21,0,0,1-11.1-10.618c-.448-.971-1.911-.194-1.467.771a22.736,22.736,0,0,0,12.185,11.474,17.179,17.179,0,0,0,4.039,1.143c1.382.18,2.79-.679,2.457-2.232-.315-1.457-1.772-2.716-2.763-3.744a45.481,45.481,0,0,0-3.495-3.235c-2.191-1.835-4.507-3.5-6.855-5.128.245-.045.493-.09.738-.137a12.985,12.985,0,0,0,2.937-.544.88.88,0,0,0,.4-.255q1.956-.337,3.936-.5a12.893,12.893,0,0,1,3.041,1.733,55.176,55.176,0,0,0,5.426,4.378,9.311,9.311,0,0,0,3.125,1.606,5.652,5.652,0,0,0,.572.094,3.668,3.668,0,0,0,3.231.335.741.741,0,0,0,.429-.724.844.844,0,0,0-.3-1.6c-5.177-.219-8.8-4.639-12.984-7.162a.684.684,0,0,0-.707-.431c-.531.022-1.063.055-1.592.094h-.006a137.123,137.123,0,0,1,29.725-.076c7.012.632,14.01,1.5,20.978,2.508,6.9,1,13.771,2.189,20.569,3.728a164.384,164.384,0,0,1,22.664,6.771c1,.382,1.465-1.208.474-1.588" transform="translate(-55.04 29.78)" fill="#587507"/>
        <path id="Path_7583" data-name="Path 7583" d="M41.659,104.747c-1.065,0-1.12,1.655-.049,1.655s1.12-1.655.049-1.655" transform="translate(-106.682 108.418)" fill="#587507"/>
      </g>
      <g id="Group_27768" data-name="Group 27768" transform="translate(605.07 2521.81)" clip-path="url(#clip-path)">
        <path id="Path_7585" data-name="Path 7585" d="M210.709,20.591c-19.392,7.433-33.128,22.772-44.623,38.232-6.334,8.519-12.251,17.295-18.922,25.6a282.092,282.092,0,0,1-20.673,22.842c-4.909,4.909-9.968,9.688-15.1,14.4a102.78,102.78,0,0,1,9.894-73.408,1.912,1.912,0,0,0-.687-2.708,2.3,2.3,0,0,0-2.976.625,105.293,105.293,0,0,0-9.808,78.762c-9.036,8.2-18.266,16.238-27.373,24.377-14.885,13.3-29.423,26.974-42.182,42.025C25.809,206.041,15.1,222.119,8.228,239.653q-1.294,3.289-2.393,6.638c-.8,2.42,3.338,3.552,4.139,1.122C15.8,229.775,25.693,213.56,37.567,198.72c12.077-15.089,26.138-28.74,40.662-41.884,10.832-9.8,21.92-19.371,32.73-29.194a1.938,1.938,0,0,0,1.435-1.3q5.975-5.454,11.8-11.049c7.427-7.172,14.589-14.578,21.272-22.337,6.841-7.938,12.923-16.34,18.987-24.777,11.227-15.617,23.393-31.91,41.743-41.218a68.661,68.661,0,0,1,6.522-2.888c2.567-.983.538-4.456-2.007-3.481" transform="translate(5.984 21.315)" fill="#b89a68"/>
        <path id="Path_7586" data-name="Path 7586" d="M79.271,93.608c0,13.16-12.3,23.831-27.471,23.831S24.327,106.768,24.327,93.608,36.627,69.777,51.8,69.777,79.271,80.448,79.271,93.608" transform="translate(25.393 72.834)" fill="#b89a68"/>
      </g>
      <g id="Group_27770" data-name="Group 27770" transform="translate(654.79 2664.421)" clip-path="url(#clip-path-6)">
        <path id="Path_7587" data-name="Path 7587" d="M77.237,83.969a.74.74,0,0,0,.229-.777,9.813,9.813,0,0,0-3.689-4.723,1.229,1.229,0,0,0-.4-.476c-2.1-1.527-4.176-3.1-6.322-4.576a10.364,10.364,0,0,0-6.4-2.25,1.224,1.224,0,0,0-.2.029,3.522,3.522,0,0,0-2.475-1.8,1.067,1.067,0,0,0-1.259.6.888.888,0,0,0,.681,1.114,1.947,1.947,0,0,1,1.435,2.518c-.4,1.482-1.739,2.692-2.792,3.846l-.932,1.022c-.155.17-.3.345-.466.511a1.085,1.085,0,0,1-.153.153c-.047.084-.1.088-.149.012a4.754,4.754,0,0,1-1.3-.439q-.65-.23-1.29-.478c-1-.39-1.98-.822-2.943-1.284a.639.639,0,0,0-.129-.139,14.327,14.327,0,0,0-12.418-2.4,13.607,13.607,0,0,0-5.4,2.919,15.011,15.011,0,0,0-3.532,5.285c-1.083,2.457-2.087,4.944-3.127,7.415-.29.693.4,1.147,1.057,1.1-.221.388-.431.785-.617,1.192a.836.836,0,0,0,.456,1.018,15.986,15.986,0,0,0-.482,3.951,15.721,15.721,0,0,0,1.306,6.268,3.338,3.338,0,0,0,1.322,1.766,1,1,0,0,0,.754.112q-.037.592-.063,1.179c-.055,1.151,1.97,1.206,2.025.053.172-3.6.521-8.161,4.85-9.79,1.976-.746,4.131-.94,5.958-2.011.268-.155.556-.35.858-.515a4.764,4.764,0,0,0,.535-.249,1.651,1.651,0,0,1,1.2-.029,9.709,9.709,0,0,1,2.4,1.514c1.623,1.308,3.058,3.452,1.884,5.385a.9.9,0,0,0,.593,1.318c-.17.223-.345.441-.531.656-1.341,1.545-2.751,2.943-3.423,4.846a11.127,11.127,0,0,0,2.144,10.446,1.124,1.124,0,0,0,1.369.378.852.852,0,0,0,.425-1.21c-2.179-2.741-3.182-6.366-1.809-9.581.748-1.756,2.348-3.039,3.528-4.556a12.713,12.713,0,0,0,2.224-4.439c3.9,1.308,8.059,2.506,10.963,5.251,2.792,2.639,4.1,6.71,1.972,10.011-.642,1,1.071,1.952,1.719.948a8.613,8.613,0,0,0,.736-1.439,1.051,1.051,0,0,0,.507-.016,11.2,11.2,0,0,0,6.4-4.357,8.9,8.9,0,0,0,1.359-6.763.792.792,0,0,0,.035-.276A12.185,12.185,0,0,0,72.1,94.4a.838.838,0,0,0,.076-.315,15.789,15.789,0,0,0-.311-3.953c-.059-.5-.123-1.006-.2-1.508q-.2-1.355-.476-2.7c-.094-.466-.2-.93-.307-1.4a2.066,2.066,0,0,0-.155-.642l0-.018c.247.043.548.047.775.086.429.076.86.155,1.288.247a11.243,11.243,0,0,1,2.606.834,3.81,3.81,0,0,1,2.42,3.035c.022,1.147,2.048,1.208,2.025.051a5.226,5.226,0,0,0-2.6-4.155m-19.478-.934a2.651,2.651,0,0,1,2.181-.382,26.1,26.1,0,0,1,2.865.623,9.707,9.707,0,0,1,4.56,2.34,9.028,9.028,0,0,1,2.15,3.562,12.053,12.053,0,0,1,.37,1.392q.113,1.018.18,2.036a22.731,22.731,0,0,0-1.95-1.345,42.95,42.95,0,0,0-7.157-3.336A10.478,10.478,0,0,0,57.43,86.9a.816.816,0,0,0,0-.352c-.233-1.042-.595-2.647.331-3.517m-2-1.208.033.014a1.261,1.261,0,0,0,.36.1,3.181,3.181,0,0,0-.568.8.731.731,0,0,0-.088-.454l-.069-.125a.957.957,0,0,0,.333-.337m-7.6-3.145c.131.061.262.125.392.184-.049.012-.1.025-.143.035-.194.047-.386.1-.58.147.114-.119.223-.243.331-.366M42.915,89.2c-.176,1.445-.752,3.1-2.414,3.673a.737.737,0,0,0-.335.239,12.345,12.345,0,0,1-1.3.705,25.818,25.818,0,0,1-3.487,1.028,9.081,9.081,0,0,0-5.61,3.859,11.743,11.743,0,0,0-1.555,4.631,13.262,13.262,0,0,1-.5-11.186.737.737,0,0,0,.033-.5,14.706,14.706,0,0,1,.854-1.749.961.961,0,0,0,.09-.223,17.137,17.137,0,0,1,4.359-3.515,22.581,22.581,0,0,1,4.621-1.993,25.8,25.8,0,0,1,2.522-.623q.641-.126,1.284-.217a7.777,7.777,0,0,1,.912-.135,6.127,6.127,0,0,1,.245,1.057,14.469,14.469,0,0,1,.294,1.664,14.271,14.271,0,0,1-.012,3.288M40.5,80.946a.83.83,0,0,0-.756.85c-.094.016-.186.033-.278.051a26.817,26.817,0,0,0-3.634,1.024,22.668,22.668,0,0,0-6.366,3.456,17.272,17.272,0,0,0-2.594,2.512q.9-2.137,1.8-4.274a18.708,18.708,0,0,1,2.784-5.1,11.644,11.644,0,0,1,9.839-3.7A11.96,11.96,0,0,1,45.1,76.8a.823.823,0,0,0,.46.585c.264.143.533.276.8.415A10.682,10.682,0,0,1,40.5,80.946M51.705,96.792a1.038,1.038,0,0,0-1.259.6,11.382,11.382,0,0,1-.423,1.59,6.382,6.382,0,0,0-1.594-3.454,12.221,12.221,0,0,0-2.757-2.246,7.944,7.944,0,0,0-1.752-.879,7.982,7.982,0,0,0,1.018-3.158,15.524,15.524,0,0,0-.094-4.163,15.105,15.105,0,0,0-.454-2.066,4.7,4.7,0,0,0-.221-.638,20.424,20.424,0,0,1,4.169-1.606c.421-.108.844-.206,1.271-.29.119-.025.294-.035.456-.059a2.322,2.322,0,0,0,.6,1.75c.9,1.016,2.438,1.331,3.376,2.3a3.4,3.4,0,0,1,.781,3.548.748.748,0,0,0,0,.554,5,5,0,0,0-.237.538,45.179,45.179,0,0,0-1.98,7.983q-.451-.153-.9-.309m19.678-.354a10.284,10.284,0,0,1,2.34,4.836.706.706,0,0,0-.121.7c1.294,4.028-1.106,8.316-5.539,9.749a9.416,9.416,0,0,0-1.279-6.146,16.159,16.159,0,0,0-8.124-6.322c-1.355-.535-2.741-1.018-4.129-1.494a55.8,55.8,0,0,1,1.508-6.573c.153-.521.3-1.046.488-1.559a1.537,1.537,0,0,1,.554-.875c.45-.237,1.142.092,1.566.243.58.206,1.157.425,1.731.644,4.135,1.576,8.267,3.536,11,6.8m-.889-14.4a1.684,1.684,0,0,0-1.809,1.895c.016.123.043.243.065.364l-.01-.008a12.246,12.246,0,0,0-5.684-2.814,17.6,17.6,0,0,0-3.787-.668.707.707,0,0,0-.131-.37c-1.273-1.829.954-3.049,2.136-4.28a3.842,3.842,0,0,0,1.249-2.477,2.73,2.73,0,0,0-.043-.531,12.241,12.241,0,0,1,3.83,2.015c1.615,1.14,3.2,2.31,4.8,3.472a.828.828,0,0,0,.454.648c.243.127.482.262.711.407.127.078.251.161.374.245l.09.065.092.067a9.493,9.493,0,0,1,1.2,1.106c.09.1.174.2.26.3l.022.027.117.151c.155.208.3.423.433.642s.27.466.386.707l0,.006a14.788,14.788,0,0,0-1.67-.472,12.457,12.457,0,0,0-3.082-.495" transform="translate(-24.527 -70.204)" fill="#7f5e2e"/>
        <path id="Path_7588" data-name="Path 7588" d="M28.39,85.891c-.029-.241-.364-.384-.607-.335a.461.461,0,0,0-.38.535q.288,2.348.574,4.693c.031.241.364.386.607.337a.46.46,0,0,0,.38-.538q-.288-2.345-.574-4.693" transform="translate(-21.12 -53.317)" fill="#a37840"/>
        <path id="Path_7589" data-name="Path 7589" d="M30.217,89.8a7.99,7.99,0,0,1-.9-2.927.49.49,0,0,0-.493-.46c-.247-.006-.546.192-.521.433a9.171,9.171,0,0,0,1.018,3.37A.549.549,0,0,0,30,90.41a.431.431,0,0,0,.213-.6" transform="translate(-20.18 -52.407)" fill="#a37840"/>
        <path id="Path_7590" data-name="Path 7590" d="M30.657,89.895a6.779,6.779,0,0,1-.48-2.8.482.482,0,0,0-.493-.46.491.491,0,0,0-.521.433A7.478,7.478,0,0,0,29.67,90.1a.53.53,0,0,0,.607.335c.245-.051.47-.309.38-.538" transform="translate(-19.285 -52.178)" fill="#a37840"/>
        <path id="Path_7591" data-name="Path 7591" d="M31.213,79.87c.513-.356-.176-1.012-.685-.658a16.431,16.431,0,0,0-5.475,6.352l0,0c-.041.086-.088.17-.129.258a.333.333,0,0,0,.114.435,20.126,20.126,0,0,0,1.872,7.523c.247.533,1.142.112.9-.417a19.455,19.455,0,0,1-.826-2.095c.311.2.9-.014.809-.46a5.837,5.837,0,0,1,2.451-5.751c.5-.368-.184-1.024-.685-.658a6.731,6.731,0,0,0-2.835,6.021,18.765,18.765,0,0,1-.452-2.058.417.417,0,0,0,.2-.241,11.826,11.826,0,0,1,3.953-5.6c.484-.386-.2-1.044-.687-.66a12.981,12.981,0,0,0-3.681,4.617c-.012-.221-.027-.444-.033-.666a15.6,15.6,0,0,1,5.187-5.943" transform="translate(-23.745 -60.035)" fill="#a37840"/>
        <path id="Path_7592" data-name="Path 7592" d="M39.166,79.434a1.51,1.51,0,0,0-.313-1.3l-.11-.568a.518.518,0,0,0-.607-.335.453.453,0,0,0-.38.468.517.517,0,0,0-.241.174L37.5,77.9a.444.444,0,0,0-.137.006c-.249.061-.462.3-.38.538q.288.831.576,1.664a.554.554,0,0,0,.38.339.413.413,0,0,0,.217.478.557.557,0,0,0,.7-.143,1.7,1.7,0,0,0,.26-1.11.725.725,0,0,0,0-.094,1.2,1.2,0,0,0,.053-.143" transform="translate(-11.139 -62.007)" fill="#a37840"/>
        <path id="Path_7593" data-name="Path 7593" d="M37.862,79.633a.774.774,0,0,0-.258-.155l0-.006a.557.557,0,0,0-.36-.145.583.583,0,0,0-.358.119.524.524,0,0,0-.127.143.519.519,0,0,0-.129.147.731.731,0,0,0-.108.354.8.8,0,0,0,.041.26,1.482,1.482,0,0,0,.213.4.343.343,0,0,0,.127.133.408.408,0,0,0,.176.088.577.577,0,0,0,.38-.033.471.471,0,0,0,.251-.27.451.451,0,0,1,.292-.5.516.516,0,0,0-.137-.533" transform="translate(-11.601 -59.81)" fill="#a37840"/>
        <path id="Path_7594" data-name="Path 7594" d="M42.213,81.1a1.8,1.8,0,0,0-1.3.507,1.533,1.533,0,0,0-.454.9c-.163.239-.327.476-.488.715a.465.465,0,0,0,.542.672A2.691,2.691,0,0,0,42.7,81.562a.479.479,0,0,0-.488-.46" transform="translate(-8.069 -57.956)" fill="#a37840"/>
        <path id="Path_7595" data-name="Path 7595" d="M43.11,82.538a.574.574,0,0,0-.609-.094,2.7,2.7,0,0,0-1.31,1.328.4.4,0,0,0,.037.335.5.5,0,0,0,.3.221.618.618,0,0,0,.28-.006.53.53,0,0,0,.572.27,1.219,1.219,0,0,0,.726-2.054" transform="translate(-6.748 -56.606)" fill="#a37840"/>
        <path id="Path_7596" data-name="Path 7596" d="M38.76,87.358a.532.532,0,0,0-.73-.3A2.57,2.57,0,0,0,36.522,88.8a.481.481,0,0,0,.1.4,3.956,3.956,0,0,0-.149.828.51.51,0,0,0,.742.409,2.792,2.792,0,0,0,1.547-3.086" transform="translate(-11.651 -51.784)" fill="#a37840"/>
        <path id="Path_7597" data-name="Path 7597" d="M36.371,90.008a.554.554,0,0,0-.7.143,1.425,1.425,0,0,0-.247.47.465.465,0,0,0-.057.014.431.431,0,0,0-.215.6c.09.135.178.27.266.4a1.683,1.683,0,0,0,.462.7q.374.57.746,1.136a.541.541,0,0,0,.934-.08,2.811,2.811,0,0,0-1.192-3.395" transform="translate(-13.086 -48.733)" fill="#a37840"/>
        <path id="Path_7598" data-name="Path 7598" d="M38.986,90.163a.532.532,0,0,0-.562-.229,1.566,1.566,0,0,0-.813.538,1.193,1.193,0,0,0-.245.666,2.6,2.6,0,0,0-.278,1.022.5.5,0,0,0,.621.45,1.978,1.978,0,0,0,1.212-.938,1.659,1.659,0,0,0,.065-1.508" transform="translate(-11.008 -48.753)" fill="#a37840"/>
        <path id="Path_7599" data-name="Path 7599" d="M40.326,87.185a.45.45,0,1,0-.031.9.45.45,0,1,0,.031-.9" transform="translate(-8.154 -51.606)" fill="#a37840"/>
        <path id="Path_7600" data-name="Path 7600" d="M44.336,89.657a.586.586,0,0,0-.5-.016A2.239,2.239,0,0,0,42.5,90.867a2.807,2.807,0,0,0-.695,1.684.512.512,0,0,0,.742.409,3.181,3.181,0,0,0,2.025-2.91.448.448,0,0,0-.237-.392" transform="translate(-6.082 -49.094)" fill="#a37840"/>
        <path id="Path_7601" data-name="Path 7601" d="M47.363,85.955a.555.555,0,0,0-.486-.133.514.514,0,0,0-.372.309c-.051.1-.1.2-.153.3a.556.556,0,0,0-.323-.037.464.464,0,0,0-.38.538,3.243,3.243,0,0,0,.834,1.731.564.564,0,0,0,.715.027,1.8,1.8,0,0,0,.166-2.733" transform="translate(-2.076 -53.041)" fill="#a37840"/>
        <path id="Path_7602" data-name="Path 7602" d="M49.561,88.89a1.252,1.252,0,0,0-.672-.251,2.194,2.194,0,0,0-1.22.249,6.82,6.82,0,0,0-2.336,2.079.434.434,0,0,0,.284.666,3.445,3.445,0,0,0,2.226-.4,2.954,2.954,0,0,0,1.273-1.367.513.513,0,0,0,.217.053c.247.006.548-.192.521-.433a.831.831,0,0,0-.292-.6" transform="translate(-2.475 -50.1)" fill="#a37840"/>
        <path id="Path_7603" data-name="Path 7603" d="M49.19,85.844a.541.541,0,0,0-.922-.137,5.464,5.464,0,0,0-1.49,3.652.52.52,0,0,0,.838.35,3.838,3.838,0,0,0,.127.384.5.5,0,0,0,.413.339.53.53,0,0,0,.509-.2,4.956,4.956,0,0,0,.525-4.386" transform="translate(-0.892 -53.355)" fill="#a37840"/>
        <path id="Path_7604" data-name="Path 7604" d="M51.054,83.226A.536.536,0,0,0,50.218,83a3.753,3.753,0,0,0-.993,3.683.521.521,0,0,0,.235.274,3.258,3.258,0,0,0,.067.374.539.539,0,0,0,.924.137,4.927,4.927,0,0,0,.6-4.239" transform="translate(1.511 -56.11)" fill="#a37840"/>
      </g>
      <g id="Group_27772" data-name="Group 27772" transform="translate(605.07 2521.81)" clip-path="url(#clip-path)">
        <path id="Path_7606" data-name="Path 7606" d="M93.213,103.233C79.971,108.52,64.3,102.556,58.2,89.909s-.3-27.185,12.937-32.472,28.918.679,35.013,13.324.3,27.185-12.937,32.472" transform="translate(58.219 57.942)" fill="#b89a68"/>
      </g>
      <g id="Group_27774" data-name="Group 27774" transform="translate(719.066 2635.262)" clip-path="url(#clip-path-8)">
        <path id="Path_7607" data-name="Path 7607" d="M102.651,97.495a.921.921,0,0,0,.875-.121A9.612,9.612,0,0,0,106.8,92.4a1.173,1.173,0,0,0,.317-.529c.693-2.365,1.441-4.723,2.064-7.106.533-2.036.811-4.294-.309-6.242a.886.886,0,0,0-.108-.151,3.048,3.048,0,0,0,.824-2.788,1.033,1.033,0,0,0-1.114-.809.917.917,0,0,0-.846,1.016c.282,1.145-.834,2.032-1.958,2.207-1.653.26-3.407-.368-4.991-.781l-1.4-.366c-.233-.061-.47-.114-.7-.184a1.323,1.323,0,0,1-.217-.065c-.1-.006-.127-.047-.072-.121a3.745,3.745,0,0,1-.084-1.261c-.018-.423-.031-.844-.035-1.267-.01-.991.031-1.98.108-2.968a.576.576,0,0,0,.088-.164,11.3,11.3,0,0,0-2.577-11.312,13.322,13.322,0,0,0-5.107-3.327,18.225,18.225,0,0,0-6.736-.82c-2.906.084-5.811.245-8.715.372a.835.835,0,0,0-.685,1.324c-.482-.029-.965-.045-1.449-.037a.913.913,0,0,0-.842.789A20.469,20.469,0,0,0,68.084,59a19.935,19.935,0,0,0-4.041,2.2,18.494,18.494,0,0,0-1.743,1.41,3.3,3.3,0,0,0-1.245,1.811.783.783,0,0,0,.19.674q-.61.208-1.212.421c-1.181.417-.423,2.126.76,1.709,3.691-1.3,8.418-2.843,11.8.11,1.543,1.349,2.606,3.066,4.415,4.159.266.159.574.321.865.507a4.428,4.428,0,0,0,.466.345,1.341,1.341,0,0,1,.511.989,8.034,8.034,0,0,1-.562,2.606c-.664,1.876-2.244,3.934-4.66,3.734A.967.967,0,0,0,72.538,80.7c-.292-.053-.582-.112-.873-.18a18.952,18.952,0,0,0-6.25-.905A13.246,13.246,0,0,0,55.764,85.6a.908.908,0,0,0,.172,1.29,1.043,1.043,0,0,0,1.388-.129A11.373,11.373,0,0,1,66.237,81.4c2.064-.082,4,.738,6,1.11a15.942,15.942,0,0,0,5.359.072c.249,3.775.717,7.724-.879,11.247a9.345,9.345,0,0,1-9.277,5.665.917.917,0,1,0-.266,1.813,10.6,10.6,0,0,0,1.743.035.847.847,0,0,0,.223.417,11.523,11.523,0,0,0,6.953,3.583,11.376,11.376,0,0,0,7.35-1.584.969.969,0,0,0,.292-.082A13.237,13.237,0,0,0,90.088,97.4a1.172,1.172,0,0,0,.35-.063,19.835,19.835,0,0,0,3.851-1.848c.482-.251.963-.507,1.437-.768q1.285-.711,2.528-1.482.647-.4,1.281-.818a2.494,2.494,0,0,0,.582-.388l.016-.01c.057.225.174.474.225.681.1.388.19.779.27,1.171a8.8,8.8,0,0,1,.208,2.508,3.73,3.73,0,0,1-2.081,3.237.935.935,0,1,0,.76,1.709,5.386,5.386,0,0,0,3.135-3.838M95.766,80.887a2.257,2.257,0,0,1,1.263,1.664,20.493,20.493,0,0,1,.523,2.639,7.869,7.869,0,0,1-.523,4.742,9.363,9.363,0,0,1-2.718,3.221,14.554,14.554,0,0,1-1.253.869q-.978.5-1.976.969a18.674,18.674,0,0,0,.57-2.166,34.252,34.252,0,0,0,.48-7.3,8.127,8.127,0,0,0-.388-3.352,1.022,1.022,0,0,0,.352-.143c.957-.613,2.424-1.559,3.671-1.136m.413-2.15a.176.176,0,0,1,0,.033.939.939,0,0,0,.047.339,3.854,3.854,0,0,0-1.038-.151.888.888,0,0,0,.423-.255c.033-.035.065-.072.1-.108a1.087,1.087,0,0,0,.472.143m.112-7.6c-.008.133-.02.268-.029.4-.031-.035-.061-.072-.092-.1-.123-.145-.251-.284-.38-.425.166.047.333.088.5.129M83.6,70.988c-1.525.433-3.419.617-4.664-.535a.8.8,0,0,0-.376-.186,12.141,12.141,0,0,1-1.232-.8A22.785,22.785,0,0,1,74.9,66.972a9.388,9.388,0,0,0-6.138-3.127,15.093,15.093,0,0,0-5.285.564A16.517,16.517,0,0,1,74.53,59.5a.945.945,0,0,0,.519-.174,18.511,18.511,0,0,1,2.1.008,1.185,1.185,0,0,0,.26-.014A18.312,18.312,0,0,1,82.7,61.544,21.1,21.1,0,0,1,86.564,64.6a22.32,22.32,0,0,1,1.641,1.852q.38.481.732.983a6.232,6.232,0,0,1,.5.7,7.474,7.474,0,0,1-.963.632,17.849,17.849,0,0,1-1.557.914,18.175,18.175,0,0,1-3.313,1.31m7.327-5.328a.944.944,0,0,0-1.157-.29c-.055-.069-.108-.141-.164-.211a23.846,23.846,0,0,0-2.489-2.616,22.224,22.224,0,0,0-6.035-3.918,19.507,19.507,0,0,0-3.571-1.153q2.514-.107,5.024-.219a23.432,23.432,0,0,1,6.246.272,10.713,10.713,0,0,1,7.677,6.716,9.271,9.271,0,0,1,.491,3.587.817.817,0,0,0-.4.617c-.037.278-.063.558-.094.836a10.473,10.473,0,0,1-5.524-3.622M79.495,81.367a1,1,0,0,0-1.112-.807,14.7,14.7,0,0,1-1.77.286,7,7,0,0,0,2.833-2.716,10.653,10.653,0,0,0,1.153-3.2,6.4,6.4,0,0,0,.182-1.813,10.289,10.289,0,0,0,3.585-.419,19.691,19.691,0,0,0,4.151-1.752,18.62,18.62,0,0,0,1.9-1.208,5.83,5.83,0,0,0,.554-.441,18.759,18.759,0,0,1,3.291,2.831c.278.307.546.619.8.942.072.09.155.231.243.358a2.644,2.644,0,0,0-1.519,1.2c-.66,1.161-.36,2.567-.959,3.74a4.016,4.016,0,0,1-3.258,2.077.936.936,0,0,0-.558.223,5.984,5.984,0,0,0-.636.018,58.041,58.041,0,0,0-8.827,1.557c-.018-.292-.037-.585-.051-.877m8.261,16.258a11.2,11.2,0,0,1-3.926,3.9.889.889,0,0,0-.75.18,9.407,9.407,0,0,1-12.034-.7,11.277,11.277,0,0,0,5.67-3.536,14.059,14.059,0,0,0,3.094-9.31c0-1.345-.076-2.694-.155-4.041a72.119,72.119,0,0,1,7.221-1.386c.587-.08,1.173-.17,1.764-.219a1.854,1.854,0,0,1,1.1.11c.421.278.368.989.386,1.4.025.568.037,1.136.047,1.7.076,4.079-.235,8.312-2.418,11.9M101.883,91.1a1.865,1.865,0,0,0-2.632-.746c-.117.063-.227.133-.341.2l.006-.012a9.874,9.874,0,0,0,.546-5.866,13.4,13.4,0,0,0-.848-3.425.8.8,0,0,0,.321-.26c1.328-1.794,3.45-.429,5.163.061a4.78,4.78,0,0,0,2.994.045,3.437,3.437,0,0,0,.517-.247,9.912,9.912,0,0,1-.488,4c-.5,1.8-1.034,3.6-1.568,5.394a.842.842,0,0,0-.468.64c-.031.253-.069.5-.123.756-.029.137-.061.274-.1.409-.006.02-.02.078-.029.1s-.02.069-.033.1a8.381,8.381,0,0,1-.63,1.445c-.063.112-.131.223-.2.333l-.018.031c-.035.053-.069.106-.106.157-.147.215-.3.421-.47.621s-.36.413-.556.6l0,0a12.032,12.032,0,0,0-.2-1.582,9.684,9.684,0,0,0-.742-2.767" transform="translate(-55.987 -55.678)" fill="#7f5e2e"/>
        <path id="Path_7608" data-name="Path 7608" d="M63.114,61.556a.438.438,0,0,0,.094-.642.54.54,0,0,0-.693-.1Q60.271,62,58.025,63.179a.436.436,0,0,0-.094.64.538.538,0,0,0,.693.1q2.244-1.183,4.49-2.365" transform="translate(-53.629 -50.057)" fill="#a37840"/>
        <path id="Path_7609" data-name="Path 7609" d="M59.038,64.654a9.391,9.391,0,0,1,2.581-1.927.454.454,0,0,0,.268-.595.523.523,0,0,0-.648-.26,10.635,10.635,0,0,0-2.98,2.2.444.444,0,0,0,.086.646.527.527,0,0,0,.693-.065" transform="translate(-53.293 -48.91)" fill="#a37840"/>
        <path id="Path_7610" data-name="Path 7610" d="M59.1,65.052a8.268,8.268,0,0,1,2.622-1.525.447.447,0,0,0,.266-.595.524.524,0,0,0-.646-.26A9.07,9.07,0,0,0,58.5,64.31a.447.447,0,0,0-.094.642.527.527,0,0,0,.693.1" transform="translate(-53.136 -48.065)" fill="#a37840"/>
        <path id="Path_7611" data-name="Path 7611" d="M74.824,60.169a.461.461,0,1,0,.388-.836,19.1,19.1,0,0,0-8.592-2.011h0c-.1,0-.206-.006-.309,0a.38.38,0,0,0-.392.27A23.894,23.894,0,0,0,59.1,62.17c-.437.421.345,1,.779.58a21.916,21.916,0,0,1,1.776-1.529.519.519,0,0,0,.787.491,7.268,7.268,0,0,1,6.773-.268.461.461,0,1,0,.386-.836,8.363,8.363,0,0,0-7.2.057q.911-.647,1.891-1.2a.5.5,0,0,0,.325.074,14.216,14.216,0,0,1,7.223,1.042.461.461,0,1,0,.386-.836A15.246,15.246,0,0,0,66.1,58.53c.219-.1.435-.2.656-.3a18.068,18.068,0,0,1,8.065,1.935" transform="translate(-52.442 -53.623)" fill="#a37840"/>
        <path id="Path_7612" data-name="Path 7612" d="M72.929,67.8a1.773,1.773,0,0,0,1.181-.783l.527-.319a.44.44,0,0,0,.094-.642.523.523,0,0,0-.623-.129.577.577,0,0,0-.272-.133l-.035,0a.379.379,0,0,0-.061-.112.532.532,0,0,0-.693-.1q-.72.576-1.441,1.149a.5.5,0,0,0-.19.456.45.45,0,0,0-.394.37.486.486,0,0,0,.425.525,2.17,2.17,0,0,0,1.22-.231.6.6,0,0,0,.1-.035,1.128,1.128,0,0,0,.166-.012" transform="translate(-39.864 -45.089)" fill="#a37840"/>
        <path id="Path_7613" data-name="Path 7613" d="M71.279,66.881a.637.637,0,0,0,.053-.278l0-.006a.432.432,0,0,0,0-.356.535.535,0,0,0-.264-.251.662.662,0,0,0-.194-.049.655.655,0,0,0-.2-.049.943.943,0,0,0-.4.053.907.907,0,0,0-.245.139,1.6,1.6,0,0,0-.317.337.335.335,0,0,0-.084.159.325.325,0,0,0-.016.182.47.47,0,0,0,.186.3.54.54,0,0,0,.37.1.626.626,0,0,0,.2-.072.6.6,0,0,0,.417.114.609.609,0,0,0,.482-.329" transform="translate(-41.333 -44.675)" fill="#a37840"/>
        <path id="Path_7614" data-name="Path 7614" d="M72.178,70.762a1.665,1.665,0,0,0-1.03-.875,1.91,1.91,0,0,0-1.091-.014l-.916-.123a.459.459,0,0,0-.46.723,3.037,3.037,0,0,0,3.231.883.445.445,0,0,0,.266-.595" transform="translate(-42.41 -40.651)" fill="#a37840"/>
        <path id="Path_7615" data-name="Path 7615" d="M70.658,72.259a.454.454,0,0,0-.151-.544,3.022,3.022,0,0,0-1.862-.56.492.492,0,0,0-.323.166.434.434,0,0,0-.1.341.522.522,0,0,0,.121.233.436.436,0,0,0-.043.585,1.447,1.447,0,0,0,2.359-.221" transform="translate(-42.801 -39.18)" fill="#a37840"/>
        <path id="Path_7616" data-name="Path 7616" d="M64.84,70.5a.442.442,0,0,0,0-.726,2.963,2.963,0,0,0-2.359-.56.57.57,0,0,0-.366.245,5.253,5.253,0,0,0-.893.208.445.445,0,0,0-.114.783,3.417,3.417,0,0,0,3.728.049" transform="translate(-50.402 -41.261)" fill="#a37840"/>
        <path id="Path_7617" data-name="Path 7617" d="M61.065,69.727c.059-.251-.178-.474-.423-.525a1.858,1.858,0,0,0-.572-.016c-.014-.012-.022-.031-.039-.041a.524.524,0,0,0-.695.065c-.1.127-.2.255-.3.382a1.707,1.707,0,0,0-.521.668l-.844,1.077a.474.474,0,0,0,.456.746,3.16,3.16,0,0,0,2.937-2.357" transform="translate(-53.9 -41.383)" fill="#a37840"/>
        <path id="Path_7618" data-name="Path 7618" d="M61.712,71.852a.433.433,0,0,0,0-.56,1.6,1.6,0,0,0-.867-.462,1.52,1.52,0,0,0-.771.063,3.339,3.339,0,0,0-1.14.18.442.442,0,0,0-.2.7,2.161,2.161,0,0,0,2.976.082" transform="translate(-52.795 -39.543)" fill="#a37840"/>
        <path id="Path_7619" data-name="Path 7619" d="M64.324,72.023c-.262-.542-1.175-.211-.912.335s1.175.211.912-.335" transform="translate(-47.855 -38.562)" fill="#a37840"/>
        <path id="Path_7620" data-name="Path 7620" d="M64.732,75.924a.477.477,0,0,0-.186-.427,2.467,2.467,0,0,0-1.77-.615,3.55,3.55,0,0,0-1.97.1.446.446,0,0,0-.114.783,3.78,3.78,0,0,0,3.74.519.462.462,0,0,0,.3-.356" transform="translate(-50.837 -35.389)" fill="#a37840"/>
        <path id="Path_7621" data-name="Path 7621" d="M69.318,77.278a.444.444,0,0,0-.061-.46.557.557,0,0,0-.46-.186l-.364-.006a.421.421,0,0,0-.092-.284.538.538,0,0,0-.691-.1,3.531,3.531,0,0,0-1.408,1.39.462.462,0,0,0,.26.609,2.192,2.192,0,0,0,2.816-.961" transform="translate(-44.899 -33.955)" fill="#a37840"/>
        <path id="Path_7622" data-name="Path 7622" d="M67.411,79.973a1,1,0,0,0-.016-.662,1.872,1.872,0,0,0-.742-.916,7.484,7.484,0,0,0-3.031-1.114c-.284-.039-.642.208-.556.507a2.919,2.919,0,0,0,1.3,1.694,3.372,3.372,0,0,0,1.888.511.4.4,0,0,0,.033.2.519.519,0,0,0,.646.26.886.886,0,0,0,.482-.482" transform="translate(-48.181 -32.789)" fill="#a37840"/>
        <path id="Path_7623" data-name="Path 7623" d="M71.1,78.392c.339-.28.186-.709-.233-.824A6.886,6.886,0,0,0,66.6,77.8a.45.45,0,0,0-.016.838c-.114.084-.229.166-.337.26a.444.444,0,0,0-.174.48.5.5,0,0,0,.409.343A6.3,6.3,0,0,0,71.1,78.392" transform="translate(-45.049 -32.732)" fill="#a37840"/>
        <path id="Path_7624" data-name="Path 7624" d="M74.524,79.041a.45.45,0,0,0-.106-.789,4.757,4.757,0,0,0-4.1.652.492.492,0,0,0-.18.307,3.733,3.733,0,0,0-.349.206.458.458,0,0,0,.233.824,6.269,6.269,0,0,0,4.507-1.2" transform="translate(-41.349 -31.98)" fill="#a37840"/>
      </g>
      <g id="Group_27776" data-name="Group 27776" transform="translate(605.07 2521.81)" clip-path="url(#clip-path)">
        <path id="Path_7626" data-name="Path 7626" d="M110.308,44.237c1.709,8.752-5.085,17.168-15.173,18.8S75.484,58.9,73.775,50.146s5.085-17.168,15.173-18.8,19.651,4.139,21.36,12.89" transform="translate(76.733 32.432)" fill="#b89a68"/>
      </g>
      <g id="Group_27778" data-name="Group 27778" transform="translate(755.317 2585.313)" clip-path="url(#clip-path-10)">
        <path id="Path_7627" data-name="Path 7627" d="M107.763,38.247a.488.488,0,0,0,.051-.54,6.942,6.942,0,0,0-3.066-2.745.861.861,0,0,0-.329-.274c-1.6-.789-3.178-1.611-4.8-2.363a7.159,7.159,0,0,0-4.55-.807.835.835,0,0,0-.127.041,2.476,2.476,0,0,0-1.878-.934.7.7,0,0,0-.76.535.623.623,0,0,0,.6.666,1.364,1.364,0,0,1,1.279,1.521,6.853,6.853,0,0,1-1.357,2.857l-.486.781c-.082.129-.157.264-.243.39a.917.917,0,0,1-.082.116c-.022.061-.053.069-.1.027a3.323,3.323,0,0,1-.924-.153c-.307-.055-.613-.114-.92-.18-.715-.151-1.422-.333-2.124-.535a.43.43,0,0,0-.1-.08,9.782,9.782,0,0,0-8.568-.258,8.785,8.785,0,0,0-3.211,2.522,9.721,9.721,0,0,0-1.662,3.893c-.4,1.752-.748,3.511-1.118,5.267-.1.491.417.719.846.619-.1.284-.184.57-.255.86a.585.585,0,0,0,.435.627,10.622,10.622,0,0,0,.192,2.677,11.238,11.238,0,0,0,.942,2.763,11.1,11.1,0,0,0,.74,1.265A2.367,2.367,0,0,0,77.3,57.841a.683.683,0,0,0,.517-.006q.052.4.11.791c.112.771,1.465.591,1.353-.184-.354-2.412-.713-5.481,1.954-7.031a24.185,24.185,0,0,0,3.7-1.976c.157-.133.323-.292.5-.435a2.664,2.664,0,0,0,.323-.225,1.122,1.122,0,0,1,.8-.147,6.822,6.822,0,0,1,1.79.75c1.247.695,2.481,1.966,1.952,3.378a.629.629,0,0,0,.564.813c-.084.166-.172.329-.268.493a10.192,10.192,0,0,0-1.647,3.589,7.712,7.712,0,0,0,2.782,6.716.771.771,0,0,0,.959.1.566.566,0,0,0,.127-.85,6.59,6.59,0,0,1-2.446-6.176,14.808,14.808,0,0,1,1.754-3.409,8.293,8.293,0,0,0,.9-3.19c2.761.452,5.684.8,7.971,2.314,2.2,1.453,3.6,4.02,2.61,6.442-.3.734.967,1.183,1.265.448a5.341,5.341,0,0,0,.3-1.036.726.726,0,0,0,.337-.067A7.2,7.2,0,0,0,109.2,55.36a5.949,5.949,0,0,0,.025-4.641.541.541,0,0,0-.01-.188A8.6,8.6,0,0,0,105.7,45.74a.6.6,0,0,0,.008-.219,10.807,10.807,0,0,0-.719-2.594q-.156-.494-.327-.981-.307-.88-.666-1.745c-.125-.3-.251-.6-.384-.9a1.45,1.45,0,0,0-.188-.411l0-.012c.17,0,.37-.029.525-.027.3,0,.593.012.889.027a7.7,7.7,0,0,1,1.839.274,2.7,2.7,0,0,1,2,1.758c.161.76,1.516.585,1.353-.184a3.693,3.693,0,0,0-2.269-2.483M94.691,39.721a1.757,1.757,0,0,1,1.4-.488,17.89,17.89,0,0,1,1.987.106,6.78,6.78,0,0,1,3.335,1.067,6.373,6.373,0,0,1,1.893,2.136,9.05,9.05,0,0,1,.427.887c.137.441.264.887.384,1.335a15.5,15.5,0,0,0-1.472-.685,29.961,29.961,0,0,0-5.193-1.449,7.181,7.181,0,0,0-2.477-.3.585.585,0,0,0-.047-.233c-.29-.668-.74-1.7-.237-2.375m-1.484-.587.022,0a.848.848,0,0,0,.251.027,2.116,2.116,0,0,0-.272.6.515.515,0,0,0-.119-.294l-.061-.076a.617.617,0,0,0,.178-.258m-5.463-1.275c.1.027.19.055.286.08-.031.014-.063.027-.092.039-.123.051-.245.106-.366.159.059-.09.114-.184.172-.278M85.62,45.413a2.649,2.649,0,0,1-1.128,2.7.467.467,0,0,0-.192.2,8.526,8.526,0,0,1-.775.609,17.092,17.092,0,0,1-2.185,1.057,5.863,5.863,0,0,0-3.231,3.17,7.787,7.787,0,0,0-.433,3.248,9.089,9.089,0,0,1-1.782-7.384.493.493,0,0,0-.043-.337,9.688,9.688,0,0,1,.341-1.257.551.551,0,0,0,.031-.157,11.045,11.045,0,0,1,2.442-2.806,14.631,14.631,0,0,1,2.814-1.823,17.276,17.276,0,0,1,1.6-.685c.272-.1.548-.194.826-.282a5.37,5.37,0,0,1,.587-.188,4.351,4.351,0,0,1,.3.676,9.779,9.779,0,0,1,.411,1.075,9.663,9.663,0,0,1,.419,2.187m-2.677-5.224a.54.54,0,0,0-.392.646c-.059.022-.121.041-.178.063a17.9,17.9,0,0,0-2.283,1.071A14.69,14.69,0,0,0,76.3,44.953a11.219,11.219,0,0,0-1.4,1.95q.319-1.518.64-3.035a12.2,12.2,0,0,1,1.189-3.689A7.592,7.592,0,0,1,82.8,36.661a8.2,8.2,0,0,1,2.665.276.576.576,0,0,0,.38.339c.194.065.392.125.587.188a6.894,6.894,0,0,1-3.489,2.724m9.508,9.33c-.331-.057-.76.229-.758.535a7.6,7.6,0,0,1-.076,1.1,4.505,4.505,0,0,0-1.508-2.126,8.575,8.575,0,0,0-2.124-1.2,5.511,5.511,0,0,0-1.279-.4,5.321,5.321,0,0,0,.268-2.209A11.207,11.207,0,0,0,85.8,41.148a3.89,3.89,0,0,0-.229-.4,13.312,13.312,0,0,1,2.563-1.517c.266-.117.533-.227.807-.329.076-.029.192-.055.3-.088a1.618,1.618,0,0,0,.625,1.1c.734.578,1.794.623,2.545,1.169a2.357,2.357,0,0,1,.979,2.275.514.514,0,0,0,.074.37,3.138,3.138,0,0,0-.09.382,30.05,30.05,0,0,0-.28,5.522l-.64-.11m13.037-2.35a7.234,7.234,0,0,1,2.185,2.964.477.477,0,0,0,.01.478,5.155,5.155,0,0,1-2.418,7.078,6.524,6.524,0,0,0-1.647-3.949A11.387,11.387,0,0,0,97.4,50.41c-.971-.211-1.956-.384-2.941-.55a37.308,37.308,0,0,1,.151-4.533c.033-.364.063-.73.121-1.089a1,1,0,0,1,.255-.642c.268-.206.773-.061,1.073-.006q.619.113,1.234.243c2.953.6,5.956,1.461,8.2,3.335m-2.459-9.477a1.1,1.1,0,0,0-.957,1.455c.027.078.059.155.09.235l-.008-.006a8.551,8.551,0,0,0-4.143-1.259,11.9,11.9,0,0,0-2.606-.037.49.49,0,0,0-.135-.233c-1.083-1.079.239-2.13.865-3.076a2.509,2.509,0,0,0,.509-1.78,2.059,2.059,0,0,0-.1-.349,8.6,8.6,0,0,1,2.806.928c1.222.585,2.43,1.192,3.64,1.794a.591.591,0,0,0,.386.382c.18.057.354.121.527.192.094.039.186.08.278.125.016.006.053.025.069.033l.07.035a6.782,6.782,0,0,1,.94.607c.072.055.141.112.21.17l.018.016c.033.029.065.057.1.088.129.123.253.249.372.38s.239.28.35.429l0,0a10.846,10.846,0,0,0-1.173-.133,8.4,8.4,0,0,0-2.113,0" transform="translate(-73.76 -31.536)" fill="#7f5e2e"/>
        <path id="Path_7628" data-name="Path 7628" d="M76.892,42.958a.358.358,0,0,0-.448-.157.3.3,0,0,0-.182.4q.494,1.53.991,3.06a.357.357,0,0,0,.446.157.3.3,0,0,0,.184-.4q-.5-1.53-.991-3.058" transform="translate(-70.663 -18.851)" fill="#a37840"/>
        <path id="Path_7629" data-name="Path 7629" d="M78.618,45.365a5.585,5.585,0,0,1-.979-1.85.345.345,0,0,0-.386-.253c-.166.022-.339.186-.29.345a6.372,6.372,0,0,0,1.114,2.13.374.374,0,0,0,.478.053.285.285,0,0,0,.063-.425" transform="translate(-69.921 -18.35)" fill="#a37840"/>
        <path id="Path_7630" data-name="Path 7630" d="M78.919,45.378a4.705,4.705,0,0,1-.683-1.809.339.339,0,0,0-.386-.253.32.32,0,0,0-.29.345,5.147,5.147,0,0,0,.73,1.956.367.367,0,0,0,.448.159.3.3,0,0,0,.182-.4" transform="translate(-69.292 -18.293)" fill="#a37840"/>
        <path id="Path_7631" data-name="Path 7631" d="M77.563,38.951c.3-.292-.247-.654-.542-.364A10.623,10.623,0,0,0,74.205,43.4v0c-.016.061-.037.121-.053.184a.23.23,0,0,0,.133.276,14.054,14.054,0,0,0,2.222,4.8c.235.327.775-.049.542-.374a13.634,13.634,0,0,1-.82-1.3c.233.1.593-.106.478-.392a3.846,3.846,0,0,1,.883-4.09c.288-.3-.255-.66-.542-.364a4.421,4.421,0,0,0-1.1,4.31,13.2,13.2,0,0,1-.568-1.322.262.262,0,0,0,.1-.182,7.678,7.678,0,0,1,1.9-4.149c.274-.309-.27-.672-.542-.364A8.385,8.385,0,0,0,74.994,43.9c-.037-.147-.076-.292-.108-.439a10.06,10.06,0,0,1,2.677-4.511" transform="translate(-72.854 -23.337)" fill="#a37840"/>
        <path id="Path_7632" data-name="Path 7632" d="M83.175,37.549a1.044,1.044,0,0,0-.376-.83c-.049-.123-.1-.245-.147-.366A.359.359,0,0,0,82.2,36.2a.3.3,0,0,0-.192.352.331.331,0,0,0-.139.141l-.008.02a.244.244,0,0,0-.09.018.3.3,0,0,0-.182.4q.3.524.6,1.044a.387.387,0,0,0,.3.186.288.288,0,0,0,.206.294.368.368,0,0,0,.446-.17,1.137,1.137,0,0,0,.029-.766c0-.02-.008-.041-.01-.063a.79.79,0,0,0,.016-.1" transform="translate(-65.11 -25.746)" fill="#a37840"/>
        <path id="Path_7633" data-name="Path 7633" d="M82.359,37.79a.533.533,0,0,0-.192-.076l0,0a.372.372,0,0,0-.255-.057.381.381,0,0,0-.223.116.342.342,0,0,0-.065.11.283.283,0,0,0-.067.11.465.465,0,0,0-.027.247.551.551,0,0,0,.061.168,1,1,0,0,0,.192.243.253.253,0,0,0,.1.076.279.279,0,0,0,.129.039.382.382,0,0,0,.249-.063.3.3,0,0,0,.131-.2.347.347,0,0,0-.018-.135.34.34,0,0,0,.147-.231.358.358,0,0,0-.159-.339" transform="translate(-65.157 -24.205)" fill="#a37840"/>
        <path id="Path_7634" data-name="Path 7634" d="M85.336,38.387a1.177,1.177,0,0,0-.8.476,1.01,1.01,0,0,0-.184.65l-.233.527c-.108.241.174.5.448.39a1.748,1.748,0,0,0,1.151-1.79.339.339,0,0,0-.386-.253" transform="translate(-62.462 -23.438)" fill="#a37840"/>
        <path id="Path_7635" data-name="Path 7635" d="M86.176,39.2a.385.385,0,0,0-.417,0,1.725,1.725,0,0,0-.7,1.022.284.284,0,0,0,.067.221.363.363,0,0,0,.231.114.415.415,0,0,0,.186-.037.366.366,0,0,0,.415.121.813.813,0,0,0,.217-1.445" transform="translate(-61.464 -22.643)" fill="#a37840"/>
        <path id="Path_7636" data-name="Path 7636" d="M83.871,42.89a.366.366,0,0,0-.523-.119,1.667,1.667,0,0,0-.779,1.32.333.333,0,0,0,.121.258,2.642,2.642,0,0,0,.006.568.355.355,0,0,0,.548.192,1.835,1.835,0,0,0,.627-2.22" transform="translate(-64.06 -18.922)" fill="#a37840"/>
        <path id="Path_7637" data-name="Path 7637" d="M82.691,44.867a.367.367,0,0,0-.446.17.975.975,0,0,0-.1.339.265.265,0,0,0-.035.016.285.285,0,0,0-.063.425c.076.08.153.159.229.241a1.193,1.193,0,0,0,.4.417l.644.674A.361.361,0,0,0,83.923,47a1.957,1.957,0,0,0-1.232-2.13" transform="translate(-64.683 -16.697)" fill="#a37840"/>
        <path id="Path_7638" data-name="Path 7638" d="M84.381,44.71a.375.375,0,0,0-.4-.092,1.02,1.02,0,0,0-.47.448.806.806,0,0,0-.078.466,1.746,1.746,0,0,0-.051.711.347.347,0,0,0,.472.233,1.271,1.271,0,0,0,.685-.754,1.127,1.127,0,0,0-.153-1.012" transform="translate(-63.233 -16.957)" fill="#a37840"/>
        <path id="Path_7639" data-name="Path 7639" d="M85,42.536a.3.3,0,1,0,.1.6.3.3,0,1,0-.1-.6" transform="translate(-61.82 -19.11)" fill="#a37840"/>
        <path id="Path_7640" data-name="Path 7640" d="M87.825,43.846a.4.4,0,0,0-.337.043,1.444,1.444,0,0,0-.726.959,1.848,1.848,0,0,0-.243,1.194.355.355,0,0,0,.546.194,2.074,2.074,0,0,0,.969-2.154.31.31,0,0,0-.208-.235" transform="translate(-59.956 -17.758)" fill="#a37840"/>
        <path id="Path_7641" data-name="Path 7641" d="M89.479,41.007a.38.38,0,0,0-.341-.037.332.332,0,0,0-.206.245c-.02.072-.043.145-.063.217a.384.384,0,0,0-.221.008.3.3,0,0,0-.182.4,2.3,2.3,0,0,0,.779,1.063.382.382,0,0,0,.48-.059,1.218,1.218,0,0,0-.245-1.835" transform="translate(-57.926 -20.763)" fill="#a37840"/>
        <path id="Path_7642" data-name="Path 7642" d="M91.218,42.842a.858.858,0,0,0-.48-.094,1.434,1.434,0,0,0-.779.3,4.409,4.409,0,0,0-1.284,1.633.3.3,0,0,0,.276.413,2.271,2.271,0,0,0,1.429-.5,1.9,1.9,0,0,0,.668-1.046.334.334,0,0,0,.151.012c.163-.022.339-.186.29-.345a.581.581,0,0,0-.272-.364" transform="translate(-57.708 -18.885)" fill="#a37840"/>
        <path id="Path_7643" data-name="Path 7643" d="M90.519,40.77a.368.368,0,0,0-.632.008,3.585,3.585,0,0,0-.515,2.587.357.357,0,0,0,.6.143c.043.082.084.164.135.243a.353.353,0,0,0,.319.18.348.348,0,0,0,.313-.188,3.342,3.342,0,0,0-.221-2.974" transform="translate(-57.021 -21.131)" fill="#a37840"/>
        <path id="Path_7644" data-name="Path 7644" d="M91.481,38.8a.368.368,0,0,0-.587-.061,2.5,2.5,0,0,0-.18,2.555.36.36,0,0,0,.19.157,2.347,2.347,0,0,0,.094.241.366.366,0,0,0,.632-.008,3.317,3.317,0,0,0-.149-2.884" transform="translate(-55.841 -23.194)" fill="#a37840"/>
      </g>
      <g id="Group_27825" data-name="Group 27825" transform="translate(605.07 2521.81)" clip-path="url(#clip-path)">
        <path id="Path_7646" data-name="Path 7646" d="M42.646,112.291c-11.272,13.093-19.884,27.882-28.436,42.581-3.023,5.2-6.084,10.491-7.358,16.259a2.039,2.039,0,0,0,.17,1.754,1.863,1.863,0,0,0,2.585-.143,4.67,4.67,0,0,0,1-2.506,42.438,42.438,0,0,1,5.725-14.4c3.152-5.024,7.335-9.442,10.832-14.274,4.748-6.559,8.212-13.855,13.264-20.226,1.927-2.43,4.071-4.709,6.215-6.984l20.244-21.5a33.989,33.989,0,0,0-3.605-.6c-1.208.227-1.655.9-2.571,1.715-2.1,1.864-4.11,3.828-6.119,5.776-4.165,4.032-8.2,8.183-11.95,12.543" transform="translate(7.035 96.296)" fill="#7f5e2e"/>
        <g id="Group_27782" data-name="Group 27782" transform="translate(53.602 165.716)" opacity="0.53" style="mix-blend-mode: multiply;isolation: isolate">
          <g id="Group_27781" data-name="Group 27781">
            <g id="Group_27780" data-name="Group 27780" clip-path="url(#clip-path-12)">
              <path id="Path_7647" data-name="Path 7647" d="M31.784,88.779a7.7,7.7,0,0,0-.862,4.686,3.464,3.464,0,0,0,3.358,2.9,5.263,5.263,0,0,0,2.861-1.6,31.194,31.194,0,0,0,5.05-5.206,10.521,10.521,0,0,0,2.14-6.792,9.627,9.627,0,0,1,2.391,4.157c.564,3.074-1.86,5.784-3.082,8.66a11.829,11.829,0,0,0-.6,7.395c.151.621.18,1.533-.452,1.627a1.08,1.08,0,0,1-.5-.084l-7-2.334A23.182,23.182,0,0,1,29.949,100a7.842,7.842,0,0,1-3.477-4.229c-.991-3.366,1.177-6.824,3.579-9.383a14.989,14.989,0,0,1,4.815-3.7c1.531-.66,3.225-.883,4.729-1.611-3.436.237-6.534,4.921-7.811,7.7" transform="translate(-26.227 -81.081)" fill="#7f5e2e"/>
            </g>
          </g>
        </g>
        <g id="Group_27785" data-name="Group 27785" transform="translate(70.98 171.748)" opacity="0.53" style="mix-blend-mode: multiply;isolation: isolate">
          <g id="Group_27784" data-name="Group 27784">
            <g id="Group_27783" data-name="Group 27783" clip-path="url(#clip-path-13)">
              <path id="Path_7648" data-name="Path 7648" d="M39.814,92.159a4.989,4.989,0,0,0,.482,2.277A4.065,4.065,0,0,0,41.921,96a5.838,5.838,0,0,0,6.418-9.718,8.858,8.858,0,0,1,6.2,5.3A7.354,7.354,0,0,1,52.823,99.4a12.453,12.453,0,0,1-5.04,2.434c-2.628.781-5.467,1.449-8.071.591a7.516,7.516,0,0,1-4.887-8.149A14.644,14.644,0,0,1,36.7,89.8c.4-.713,2.99-6.579,4.464-5.678.826.5-.325,2.667-.538,3.282a13.575,13.575,0,0,0-.807,4.75" transform="translate(-34.73 -84.033)" fill="#7f5e2e"/>
            </g>
          </g>
        </g>
        <g id="Group_27788" data-name="Group 27788" transform="translate(67.506 152.605)" opacity="0.53" style="mix-blend-mode: multiply;isolation: isolate">
          <g id="Group_27787" data-name="Group 27787">
            <g id="Group_27786" data-name="Group 27786" clip-path="url(#clip-path-14)">
              <path id="Path_7649" data-name="Path 7649" d="M41.624,79.938a6.435,6.435,0,0,1-.842,5.093,2.017,2.017,0,0,1-2.15.871c-1-.38-1.13-1.715-1.21-2.788a14.4,14.4,0,0,0-2.639-7.282c-.239,1.829.3,3.671.3,5.514a9.616,9.616,0,0,1-1.772,5.567,1.232,1.232,0,0,0-.282.582c-.041.46.433.775.836,1a14.4,14.4,0,0,1,4.576,4.1c.519.719,1.071,1.557,1.944,1.719,1.3.239,2.271-1.114,2.882-2.279,1.621-3.1,3.262-6.338,3.352-9.829a8.776,8.776,0,0,0-2.751-6.82c-.973-.793-1.995-1.169-2.726.133-.707,1.255.251,3.129.48,4.417" transform="translate(-33.029 -74.667)" fill="#7f5e2e"/>
            </g>
          </g>
        </g>
        <g id="Group_27791" data-name="Group 27791" transform="translate(79.059 160.087)" opacity="0.53" style="mix-blend-mode: multiply;isolation: isolate">
          <g id="Group_27790" data-name="Group 27790">
            <g id="Group_27789" data-name="Group 27789" clip-path="url(#clip-path-15)">
              <path id="Path_7650" data-name="Path 7650" d="M48.779,82.656c1.608,1.167,3.335,2.921,2.78,4.825A3.111,3.111,0,0,1,49.3,89.5a5.188,5.188,0,0,1-3.1-.313,8.052,8.052,0,0,1-4.564-9.553c-2.1,1.764-2.649,4.736-2.9,7.466a3.4,3.4,0,0,0,.448,2.528,3.431,3.431,0,0,0,1.733.909c2.861.848,5.933,1.79,7.752,4.157a10.477,10.477,0,0,1,1.862,5.385,4.023,4.023,0,0,0,.392,1.668,2.32,2.32,0,0,0,2.179,1.014,4.5,4.5,0,0,0,2.3-.985A10.338,10.338,0,0,0,58.9,91.5,15.254,15.254,0,0,0,52.4,82.384a26.151,26.151,0,0,0-9.939-4.057c.862,1.692,4.686,3.149,6.315,4.329" transform="translate(-38.683 -78.328)" fill="#7f5e2e"/>
            </g>
          </g>
        </g>
        <g id="Group_27794" data-name="Group 27794" transform="translate(49.549 156.823)" opacity="0.53" style="mix-blend-mode: multiply;isolation: isolate">
          <g id="Group_27793" data-name="Group 27793">
            <g id="Group_27792" data-name="Group 27792" clip-path="url(#clip-path-16)">
              <path id="Path_7651" data-name="Path 7651" d="M31.692,84.23a1.851,1.851,0,0,1-1.124-.724,1.881,1.881,0,0,1-.061-1.439A6.291,6.291,0,0,1,33.8,78.089a10.053,10.053,0,0,0-9.1,13.078,18.292,18.292,0,0,0,3.869,6.14,9.48,9.48,0,0,1,2.592-5.365c3.466-3.558,9.485-4.163,12.148-8.359.764-1.2,2.271-4.87,1.324-6.254-.838-1.224-2.6-.327-3.311.548-1.463,1.786-1.925,3.822-3.979,5.216a6.853,6.853,0,0,1-5.649,1.138" transform="translate(-24.244 -76.731)" fill="#7f5e2e"/>
            </g>
          </g>
        </g>
        <g id="Group_27797" data-name="Group 27797" transform="translate(50.09 146.47)" opacity="0.53" style="mix-blend-mode: multiply;isolation: isolate">
          <g id="Group_27796" data-name="Group 27796">
            <g id="Group_27795" data-name="Group 27795" clip-path="url(#clip-path-17)">
              <path id="Path_7652" data-name="Path 7652" d="M42.083,75.816a18.634,18.634,0,0,1-9.955,4.543,1.735,1.735,0,0,1-.981-.072c-1.022-.493-.356-2.072-.695-3.156A15.754,15.754,0,0,0,24.549,88a4.872,4.872,0,0,0,.415,2.859,20.855,20.855,0,0,1,10.464-8.831c3.891-1.48,8.4-1.882,11.439-4.719a2.847,2.847,0,0,0,1-1.6c.2-1.459-1.429-2.436-2.812-2.941a12.222,12.222,0,0,0-6.158-.993c-.877.149-5.982,2.258-4.838,3.785.258.343,3.062-.376,3.6-.392a12.387,12.387,0,0,1,4.427.656" transform="translate(-24.508 -71.665)" fill="#7f5e2e"/>
            </g>
          </g>
        </g>
        <g id="Group_27800" data-name="Group 27800" transform="translate(70.577 172.184)" opacity="0.53" style="mix-blend-mode: multiply;isolation: isolate">
          <g id="Group_27799" data-name="Group 27799">
            <g id="Group_27798" data-name="Group 27798" clip-path="url(#clip-path-18)">
              <path id="Path_7653" data-name="Path 7653" d="M40.913,84.247a16.083,16.083,0,0,0-3.552,10.836,4.74,4.74,0,0,0,.875,2.855,4.569,4.569,0,0,0,1.6,1.112,10.429,10.429,0,0,0,8.112.486,7.573,7.573,0,0,0,4.862-6.248,13.049,13.049,0,0,0-.8-4.613c2.432,1.263,3.56,4.294,3.244,7.016a5.411,5.411,0,0,1-.971,2.681,6.1,6.1,0,0,1-1.938,1.535c-3.317,1.831-7.19,2.336-10.971,2.585a7.511,7.511,0,0,1-2.109-.067A5.409,5.409,0,0,1,36.6,100.8a6.905,6.905,0,0,1-2.019-5.533A10.353,10.353,0,0,1,35.771,92a68.011,68.011,0,0,1,3.8-6.522Z" transform="translate(-34.532 -84.246)" fill="#7f5e2e"/>
            </g>
          </g>
        </g>
        <g id="Group_27803" data-name="Group 27803" transform="translate(60.325 142.35)" opacity="0.53" style="mix-blend-mode: multiply;isolation: isolate">
          <g id="Group_27802" data-name="Group 27802">
            <g id="Group_27801" data-name="Group 27801" clip-path="url(#clip-path-19)">
              <path id="Path_7654" data-name="Path 7654" d="M49.887,72.179a4.6,4.6,0,0,1,1.9.824,2.75,2.75,0,0,1-.029,4.069,8.516,8.516,0,0,1,6.15-1.467,13.315,13.315,0,0,1,5.927,2.467,4.478,4.478,0,0,1,1.978,2.416c.247,1.036-.458,2.334-1.523,2.312a11.84,11.84,0,0,1,6.256,5.565,6.772,6.772,0,0,1,.65,5.383c-.652,1.743-2.673,3.027-4.427,2.4a13.469,13.469,0,0,1,1.9,7.037c-.006.441.02.981.413,1.185.476.249,1-.231,1.3-.674,3.983-5.8,3.689-13.9.231-20.029S60.964,73.285,54.291,71.059a25.673,25.673,0,0,0-6.671-1.38,26.685,26.685,0,0,0-5.7.374,27.826,27.826,0,0,0-12.4,4.834c.27-.2,2.657.386,3.084.417a7.382,7.382,0,0,0,2.553-.088c1.251-.372,2.269-1.443,3.468-1.978a17.746,17.746,0,0,1,11.265-1.059" transform="translate(-29.516 -69.649)" fill="#7f5e2e"/>
            </g>
          </g>
        </g>
        <g id="Group_27806" data-name="Group 27806" transform="translate(114.239 121.674)" opacity="0.53" style="mix-blend-mode: multiply;isolation: isolate">
          <g id="Group_27805" data-name="Group 27805">
            <g id="Group_27804" data-name="Group 27804" clip-path="url(#clip-path-20)">
              <path id="Path_7655" data-name="Path 7655" d="M56.4,69.426c-.672,3.164-.92,6.691.815,9.422a4.86,4.86,0,0,0,0,3.726,21.582,21.582,0,0,0,5.142,9.61A28.152,28.152,0,0,0,67.2,95.752a45.07,45.07,0,0,0,5.067,2.9A23.8,23.8,0,0,0,86.6,100.383a34.447,34.447,0,0,0,8.852-3.15,11.954,11.954,0,0,0,4.533-3.352,4.723,4.723,0,0,0,.4-5.32,10.541,10.541,0,0,1-10.338,7.321A22.485,22.485,0,0,0,90.7,81.175a14.087,14.087,0,0,1-3.182,10.916,6.762,6.762,0,0,1-3.759,2.475,1.983,1.983,0,0,1-2.011-.585A2.359,2.359,0,0,1,81.48,92.5c.121-2.4.629-4.776.484-7.168s-1.106-4.924-3.178-6.127a13.329,13.329,0,0,1-1,9.8,7.057,7.057,0,0,1-2.671,2.99c-2.459,1.361-5.606.3-7.822-1.429a6.775,6.775,0,0,1-2.857-4.345,5.889,5.889,0,0,1,2.974-5.3,17.332,17.332,0,0,1,6.042-1.995c.094-.454-.392-.8-.82-.983-3.252-1.386-6.939-1.014-10.472-1.057a2.353,2.353,0,0,1-1.911-.632,2.109,2.109,0,0,1-.311-1.4,8.78,8.78,0,0,1,10.372-8.271,40.286,40.286,0,0,1,4.451,1.433c.211.065.474.114.623-.047a.58.58,0,0,0,.108-.407c.008-4.3-3.955-7.184-7.873-7.713-3.5-.472-5.9-.86-8.232,2.222A18.326,18.326,0,0,0,56.4,69.426" transform="translate(-55.895 -59.533)" fill="#7f5e2e"/>
            </g>
          </g>
        </g>
        <g id="Group_27809" data-name="Group 27809" transform="translate(138.514 114.909)" opacity="0.53" style="mix-blend-mode: multiply;isolation: isolate">
          <g id="Group_27808" data-name="Group 27808">
            <g id="Group_27807" data-name="Group 27807" clip-path="url(#clip-path-21)">
              <path id="Path_7656" data-name="Path 7656" d="M95.545,75.575A25.113,25.113,0,0,0,80.5,58.111,31.783,31.783,0,0,0,73.952,56.4a37.635,37.635,0,0,0-5.839-.1c-.114.022-.227.049-.341.072a21.977,21.977,0,0,0,3.256,1.931c2.788,1.059,6.146-.219,8.792,1.159a6.978,6.978,0,0,1,2.706,2.833,12.492,12.492,0,0,1,1.359,8.662c1.621-.464,1.935-2.63,3.1-3.846a1.626,1.626,0,0,1,.63-.435,1.482,1.482,0,0,1,1.263.243,2.318,2.318,0,0,1-.7,4.171,10.775,10.775,0,0,0,3.519.914c-.074.4-.672.386-.993.646-.6.486.123,1.42.836,1.709S93.2,75.038,93.1,75.8q-1.533.377-3.064.75a1.065,1.065,0,0,0-.488.213.764.764,0,0,0,.135,1.079,2.868,2.868,0,0,0,1.122.468,6.346,6.346,0,0,1,2.988,1.921l-3.4-.141c-.548-.025-1.267.084-1.359.625-.065.4.292.736.6,1a10.353,10.353,0,0,1,1.564,1.7,1.135,1.135,0,0,1,.3.779c-.084.607-.93.693-1.527.556s-1.38-.255-1.684.274c-.237.417.016.926.2,1.369a4.487,4.487,0,0,1-.867,4.662,4.225,4.225,0,0,0-.681.789c-.407.732-.108,1.641-.2,2.473-.276,2.634-4.09,3.556-4.772,6.117A13.634,13.634,0,0,0,91.7,93.424a27,27,0,0,0,1.3-3.09l1.455-3.889a24.316,24.316,0,0,0,1.447-4.9,16.25,16.25,0,0,0-.364-5.97" transform="translate(-67.773 -56.222)" fill="#7f5e2e"/>
            </g>
          </g>
        </g>
        <g id="Group_27812" data-name="Group 27812" transform="translate(151.045 64.466)" opacity="0.53" style="mix-blend-mode: multiply;isolation: isolate">
          <g id="Group_27811" data-name="Group 27811">
            <g id="Group_27810" data-name="Group 27810" clip-path="url(#clip-path-22)">
              <path id="Path_7657" data-name="Path 7657" d="M100.646,38.675a13.469,13.469,0,0,1-4.392,14.366C92,56.25,85.376,56.054,81.618,52.273a10.433,10.433,0,0,1-2.626-4.5C77.6,42.851,80,37.645,83.012,33.508c-3.742.468-6.377,3.967-7.744,7.484-1.829,4.7-2.072,10.391.852,14.5a17.275,17.275,0,0,0,6.589,5.136,22.489,22.489,0,0,0,6.242,2.179,16.774,16.774,0,0,0,12.569-3.084,18.51,18.51,0,0,0,6.971-10.983,15.47,15.47,0,0,0-.29-8,12.892,12.892,0,0,0-5.383-6.853c-1.919-1.2-5.1-2.565-7.358-2.318.752,1.03,2,1.711,2.835,2.718a12.624,12.624,0,0,1,2.35,4.386" transform="translate(-73.904 -31.542)" fill="#7f5e2e"/>
            </g>
          </g>
        </g>
        <g id="Group_27815" data-name="Group 27815" transform="translate(150.823 64.542)" opacity="0.53" style="mix-blend-mode: multiply;isolation: isolate">
          <g id="Group_27814" data-name="Group 27814">
            <g id="Group_27813" data-name="Group 27813" clip-path="url(#clip-path-23)">
              <path id="Path_7658" data-name="Path 7658" d="M95.612,31.579,93.965,35.1c1.58-1.907,4.662-1.745,6.812-.519a9.506,9.506,0,0,1,4.556,6.348,17.336,17.336,0,0,0-9.557-.875,18.377,18.377,0,0,1,6.18,2.046A8.6,8.6,0,0,1,106,47.034a11.764,11.764,0,0,0-8.067-4.27,8.314,8.314,0,0,1,4.588,8.145,19.188,19.188,0,0,1-4.6-1.823,6.835,6.835,0,0,0-4.807-.672c2.095.848,4.408,1.294,6.2,2.673s2.784,4.2,1.3,5.9a4.851,4.851,0,0,1-3.593,1.32,5.817,5.817,0,0,1-3.141-.64A4.816,4.816,0,0,1,91.759,54.4a10.68,10.68,0,0,1,.147-3.983,9.961,9.961,0,0,0-3.117,7.172,5.354,5.354,0,0,1-.431,2.992,30.707,30.707,0,0,1-2.62-2.377,7.456,7.456,0,0,1-1.5-1.974,5.708,5.708,0,0,1-.016-4.306A16.947,16.947,0,0,1,86.4,48.1a9.3,9.3,0,0,0-6.064,3.5c-.546.711-1.247,1.611-2.113,1.382a1.376,1.376,0,0,1-.664-.439c-.967-1.093-.529-2.853.337-4.026s2.093-2.068,2.818-3.331a9.751,9.751,0,0,1-3.593.143q1.006-1.757,2.013-3.515c-.687.223-1.367-.538-1.359-1.259a3.53,3.53,0,0,1,.881-1.933,3.326,3.326,0,0,0,.842-1.95,3.342,3.342,0,0,0-2.109,1.535,16.934,16.934,0,0,0-3.519,8.331,11.876,11.876,0,0,0,2.307,8.621,15.156,15.156,0,0,0,3.156,2.855A23.137,23.137,0,0,0,94.68,62.543c5.424-.527,10.693-3.718,13.021-8.643a19.815,19.815,0,0,0,1.5-5.044,15.294,15.294,0,0,0,.057-6.256,11.04,11.04,0,0,0-1.085-2.728,12.824,12.824,0,0,0-4.989-4.979Z" transform="translate(-73.794 -31.579)" fill="#7f5e2e"/>
            </g>
          </g>
        </g>
        <path id="Path_7659" data-name="Path 7659" d="M80.374,37.164c.176.317-.041.7-.055,1.061a1.754,1.754,0,0,0,.2.779A11.946,11.946,0,0,0,83.3,42.848L82.11,39.427a1.028,1.028,0,0,1-.053-.775c.119-.237.4-.339.6-.5,2.7-2.105-4.345-4.689-2.287-.987" transform="translate(83.496 36.84)" fill="#f9eda7"/>
        <g id="Group_27818" data-name="Group 27818" transform="translate(147.344 94.199)" opacity="0.53" style="mix-blend-mode: multiply;isolation: isolate">
          <g id="Group_27817" data-name="Group 27817">
            <g id="Group_27816" data-name="Group 27816" clip-path="url(#clip-path-24)">
              <path id="Path_7660" data-name="Path 7660" d="M73.626,65.4c-.507.482-1.02.959-1.533,1.435l3.728,1.2c.45.141,7.358-9.4,8.112-10.356,2.6-3.315,5.665-7.178,6.8-11.3-.773-.206-2.246-.57-2.951.065-.679.611-.319,1.386-.617,2.205-.74,2.05-2.7,4.184-3.992,5.927A82.948,82.948,0,0,1,73.626,65.4" transform="translate(-72.093 -46.09)" fill="#7f5e2e"/>
            </g>
          </g>
        </g>
        <g id="Group_27821" data-name="Group 27821" transform="translate(182.53 41.853)" opacity="0.53" style="mix-blend-mode: multiply;isolation: isolate">
          <g id="Group_27820" data-name="Group 27820">
            <g id="Group_27819" data-name="Group 27819" clip-path="url(#clip-path-25)">
              <path id="Path_7661" data-name="Path 7661" d="M118.76,24.279a15.813,15.813,0,0,0-5.766,3.611,42.255,42.255,0,0,1-3.648,3.229c-3.1,2.226-7.217,3.143-9.536,6.172-.566.738-1,1.57-1.539,2.324a18.6,18.6,0,0,1-3.421,3.342q-2.771,2.275-5.541,4.55l2.54,2.974C97.229,45.3,102.639,40.1,108.807,35.89c2.271-1.547,4.633-2.953,6.994-4.357l6.636-3.949a10.366,10.366,0,0,0,2.88-2.207c1.194-1.474,1.275-5.3-1.555-4.864-1.044.161-1.253,1.116-1.8,1.844a5.323,5.323,0,0,1-3.2,1.923" transform="translate(-89.309 -20.478)" fill="#7f5e2e"/>
            </g>
          </g>
        </g>
        <g id="Group_27824" data-name="Group 27824" transform="translate(111.627 69.937)" opacity="0.53" style="mix-blend-mode: multiply;isolation: isolate">
          <g id="Group_27823" data-name="Group 27823">
            <g id="Group_27822" data-name="Group 27822" clip-path="url(#clip-path-26)">
              <path id="Path_7662" data-name="Path 7662" d="M60.691,50.226a78.463,78.463,0,0,0-2.5,9.821q-.727,3.473-1.455,6.947a104.594,104.594,0,0,0-1.829,10.524,59.832,59.832,0,0,0,2.087,22.278A11.682,11.682,0,0,0,57.736,96a27.106,27.106,0,0,0-.313-3.981c-1.891-15.717.836-31.771,6.792-46.374q1.272-3.121,2.743-6.158c.746-1.545,2.373-3.622,2.583-5.271-2.379-.029-3.658,4.725-4.5,6.4a79.508,79.508,0,0,0-4.345,9.608" transform="translate(-54.617 -34.219)" fill="#7f5e2e"/>
            </g>
          </g>
        </g>
        <path id="Path_7663" data-name="Path 7663" d="M64.384,122.73c5.715,2.44,11.041,5.941,17.1,7.331-4.744-7.082-13.837-9.545-22.137-11.482a21.773,21.773,0,0,1,22.335,1.942c3.867,2.888,6.632,6.984,10.084,10.356s8.151,6.133,12.892,5.23c-5.584-7.867-15.478-11.6-21.7-18.967-.634-.75-1.243-1.837-.681-2.645a2.162,2.162,0,0,1,.9-.65c6.364-3.013,14.1-.5,19.76,3.683s10.033,9.884,15.463,14.368,12.668,7.783,19.435,5.833c-7.748-9.675-21.431-13.371-28.481-23.567,4.075-3.174,10.023-2.816,14.72-.664s8.506,5.8,12.5,9.079c7.987,6.552,17.622,11.981,27.951,11.811a3.22,3.22,0,0,0,2.639-.924c.756-1.02.153-2.473-.6-3.493-6.8-9.164-23.124-7.9-28.178-18.129,2.256-1.919,5.688-.82,8.38.417,13.471,6.183,27.442,13.845,42.152,12.028,1.586-.2,3.648-1.353,2.968-2.8a2.421,2.421,0,0,0-1.157-1.008c-4.09-2.134-8.917-2.07-13.489-2.684-10.4-1.392-19.954-6.436-30.191-8.725a58.313,58.313,0,0,0-23.434-.4c5.232-2.021,10.965-5.124,12.122-10.614a1.81,1.81,0,0,0-.01-1.063c-.517-1.269-2.416-.364-3.38.609-6.544,6.589-16.375,10.135-25.433,8.093a3.281,3.281,0,0,1-2.346-1.375c-.568-1.1.145-2.387.713-3.489a15.4,15.4,0,0,0,1.655-5.847,1.9,1.9,0,0,0-.147-1.091,1.425,1.425,0,0,0-2.081-.151,4.818,4.818,0,0,0-1.183,2.032,19.735,19.735,0,0,1-17.779,12.077c-2.052-4.707,3.056-11.182-.542-14.844-.315,5.208-3.914,9.765-8.306,12.582s-9.532,4.18-14.576,5.506A121.173,121.173,0,0,0,73.7,94.106c-9.338,6.45-16.306,17.041-27.322,19.772q1.251-3.768,2.5-7.536c-.392,1.181-6.26,3.383-7.474,4.069q-3.7,2.094-7.343,4.3c-2.912,1.766-11.21,5.179-11.778,8.778,7.014-1.723,13.1-4.507,20.587-4.733a51.039,51.039,0,0,1,21.511,3.975" transform="translate(23.262 97.088)" fill="#51700e"/>
      </g>
    </g>
  </g>
</svg>
