<svg id="Group_28016" data-name="Group 28016" xmlns="http://www.w3.org/2000/svg" xmlns:xlink="http://www.w3.org/1999/xlink" width="245.267" height="303.308" viewBox="0 0 245.267 303.308">
  <defs>
    <clipPath id="clip-path">
      <rect id="Rectangle_2221" data-name="Rectangle 2221" width="245.267" height="303.308" fill="none"/>
    </clipPath>
    <clipPath id="clip-path-3">
      <path id="Path_7785" data-name="Path 7785" d="M56.732,63.316c-1.6,25.447,1.571,51.067,7.574,75.784,6.656,27.4,18.117,55.882,41.874,71.078,6.417,4.1,13.717,7.237,18.586,13.1,3.147,3.791,5.032,8.441,6.866,13.015C149.468,205.272,160.826,169.728,158.86,134s-18.426-71.456-47.541-92.251c-5.641-4.03-11.753-7.449-17.092-11.9-4.362-3.637-7.563-9.829-12.592-12.427a14.129,14.129,0,0,0-6.468-1.787c-15.99,0-17.812,37.814-18.435,47.673" transform="translate(-56.32 -15.643)" fill="none"/>
    </clipPath>
    <clipPath id="clip-path-4">
      <rect id="Rectangle_2213" data-name="Rectangle 2213" width="117.137" height="237.513" fill="none"/>
    </clipPath>
    <clipPath id="clip-path-5">
      <rect id="Rectangle_2214" data-name="Rectangle 2214" width="93.843" height="212.817" fill="none"/>
    </clipPath>
    <clipPath id="clip-path-7">
      <rect id="Rectangle_2215" data-name="Rectangle 2215" width="48.54" height="103.096" fill="none"/>
    </clipPath>
    <clipPath id="clip-path-8">
      <rect id="Rectangle_2216" data-name="Rectangle 2216" width="56.099" height="161.161" fill="none"/>
    </clipPath>
    <clipPath id="clip-path-9">
      <path id="Path_7844" data-name="Path 7844" d="M128.657,15.18C108.973,28.865,80.749,28.507,59.095,39.091A102.053,102.053,0,0,0,7.289,163.615c7.21,21.208,21.585,41.219,19.655,63.536-1.062,12.281-7.121,24.3-4.895,36.422,10.893-6.626,17.908-17.945,26.819-27.065,12.123-12.409,27.909-20.862,39.555-33.719,10.013-11.061,16.485-24.869,21.51-38.916,8.051-22.491,12.762-46.079,21.078-68.472,5.36-14.442,12.239-28.459,15.147-43.59a84.845,84.845,0,0,0-.739-35.706c-1.339-5.511-3.168-7.465-5.45-7.465-3.014,0-6.817,3.414-11.312,6.54" transform="translate(-1.931 -8.64)" fill="none"/>
    </clipPath>
    <clipPath id="clip-path-10">
      <rect id="Rectangle_2218" data-name="Rectangle 2218" width="167.442" height="267.628" fill="none"/>
    </clipPath>
    <clipPath id="clip-path-11">
      <rect id="Rectangle_2219" data-name="Rectangle 2219" width="125.613" height="250.706" fill="none"/>
    </clipPath>
    <clipPath id="clip-path-12">
      <rect id="Rectangle_2220" data-name="Rectangle 2220" width="134.425" height="236.654" fill="none"/>
    </clipPath>
  </defs>
  <g id="Group_28015" data-name="Group 28015" clip-path="url(#clip-path)">
    <g id="Group_27987" data-name="Group 27987">
      <g id="Group_27986" data-name="Group 27986" clip-path="url(#clip-path)">
        <path id="Path_7782" data-name="Path 7782" d="M111.318,41.752C140.435,62.546,156.893,98.276,158.859,134s-9.392,71.271-27.228,102.287c-1.834-4.572-3.719-9.225-6.866-13.013-4.869-5.859-12.169-8.992-18.586-13.1C82.424,194.982,70.961,166.5,64.3,139.1c-6-24.717-9.171-50.337-7.572-75.782.695-11.056,2.9-57.256,24.9-45.886,5.027,2.6,8.228,8.79,12.59,12.425,5.339,4.448,11.451,7.867,17.092,11.9" transform="translate(74.578 20.715)" fill="#223d04"/>
      </g>
    </g>
    <g id="Group_27995" data-name="Group 27995" transform="translate(130.897 36.357)">
      <g id="Group_27994" data-name="Group 27994" clip-path="url(#clip-path-3)">
        <g id="Group_27990" data-name="Group 27990" transform="translate(-2.767 -9.234)" opacity="0.18" style="mix-blend-mode: multiply;isolation: isolate">
          <g id="Group_27989" data-name="Group 27989">
            <g id="Group_27988" data-name="Group 27988" clip-path="url(#clip-path-4)">
              <path id="Path_7783" data-name="Path 7783" d="M57.2,46.5c-1.59,7.258-1.727,14.742-1.866,22.17-.418,23.063-.788,46.525,5.541,68.707Q62.226,112.71,65.7,88.221c1.2-8.451,2.826-17.389,8.558-23.713,8.049-8.869,22.4-9.764,33.187-4.576s18.486,15.226,24.15,25.777c13.2,24.6,17.283,53.286,15.962,81.171s-7.779,55.245-14.64,82.3c13.922-18.517,27.909-37.682,34.491-59.9,5.924-20,5.478-41.307,3.616-62.081-1.611-17.968-4.353-36.22-12.523-52.305-8.07-15.888-20.99-28.766-34.526-40.354-10.965-9.383-28.269-24.067-43.929-22.8C66.774,12.823,59.546,35.746,57.2,46.5" transform="translate(-55.13 -11.67)" fill="#253d00"/>
            </g>
          </g>
        </g>
        <g id="Group_27993" data-name="Group 27993" transform="translate(3.615 -0.158)" opacity="0.24" style="mix-blend-mode: multiply;isolation: isolate">
          <g id="Group_27992" data-name="Group 27992">
            <g id="Group_27991" data-name="Group 27991" clip-path="url(#clip-path-5)">
              <path id="Path_7784" data-name="Path 7784" d="M68.491,15.575c1.434,10.463,2.866,21.155.834,31.52A118.042,118.042,0,0,1,65.79,59.6C60.963,75,57.558,91.015,57.9,107.149s4.623,32.464,14.036,45.57c-4.95-10.475-4.695-22.572-4.093-34.144q1.178-22.594,3.626-45.1c.267-2.468.574-5.018,1.829-7.161s3.73-3.777,6.161-3.268c2.25.472,3.788,2.568,4.706,4.676,3.038,6.986,2.478,16.65,9.225,20.19,1.943,1.02,4.218,1.295,6.143,2.352,5.45,3,5.889,10.5,5.8,16.718s.841,13.819,6.566,16.244c-2.1-3.851.641-9.15,4.837-10.44s8.927.869,11.528,4.4c4.971,6.756,2.794,16.109,1.4,24.38a102.882,102.882,0,0,0,1.329,40.626l3.891-21.6c.223-1.234.544-2.617,1.618-3.261,2.329-1.395,4.6,1.989,5.009,4.674,3.379,22.361-14.157,44.127-10.191,66.39,20.457-37.254,26.528-82.789,13.641-123.288S99.553,30.194,58.9,17.785Z" transform="translate(-57.875 -15.575)" fill="#223d04"/>
            </g>
          </g>
        </g>
      </g>
    </g>
    <g id="Group_28003" data-name="Group 28003">
      <g id="Group_28002" data-name="Group 28002" clip-path="url(#clip-path)">
        <path id="Path_7786" data-name="Path 7786" d="M82.272,80.443a11.955,11.955,0,1,1-11.949-11.53,11.744,11.744,0,0,1,11.949,11.53" transform="translate(77.301 91.252)" fill="#739334"/>
        <path id="Path_7787" data-name="Path 7787" d="M74.981,78.009a11.955,11.955,0,1,1-11.949-11.53,11.744,11.744,0,0,1,11.949,11.53" transform="translate(67.646 88.029)" fill="#50661a"/>
        <path id="Path_7788" data-name="Path 7788" d="M91.8,80.443a11.955,11.955,0,1,1-11.949-11.53A11.744,11.744,0,0,1,91.8,80.443" transform="translate(89.924 91.252)" fill="#50661a"/>
        <path id="Path_7789" data-name="Path 7789" d="M92.179,94.483A11.955,11.955,0,1,1,80.23,82.953a11.744,11.744,0,0,1,11.949,11.53" transform="translate(90.419 109.844)" fill="#50661a"/>
        <path id="Path_7790" data-name="Path 7790" d="M74.608,96.728A11.955,11.955,0,1,1,62.659,85.2,11.746,11.746,0,0,1,74.608,96.728" transform="translate(67.152 112.819)" fill="#50661a"/>
        <path id="Path_7791" data-name="Path 7791" d="M74.981,110.021a11.955,11.955,0,1,1-11.949-11.53,11.744,11.744,0,0,1,11.949,11.53" transform="translate(67.646 130.418)" fill="#50661a"/>
        <path id="Path_7792" data-name="Path 7792" d="M88.254,108.336a11.955,11.955,0,1,1-11.949-11.53,11.745,11.745,0,0,1,11.949,11.53" transform="translate(85.222 128.187)" fill="#50661a"/>
        <path id="Path_7793" data-name="Path 7793" d="M88.441,123.125A11.955,11.955,0,1,1,76.492,111.6a11.744,11.744,0,0,1,11.949,11.53" transform="translate(85.47 147.77)" fill="#50661a"/>
        <path id="Path_7794" data-name="Path 7794" d="M79.468,124.248a11.955,11.955,0,1,1-11.949-11.53,11.744,11.744,0,0,1,11.949,11.53" transform="translate(73.588 149.257)" fill="#50661a"/>
        <path id="Path_7795" data-name="Path 7795" d="M83.02,120.691a11.955,11.955,0,1,1-11.951-11.53,11.746,11.746,0,0,1,11.951,11.53" transform="translate(78.291 144.547)" fill="#8aa047"/>
        <path id="Path_7796" data-name="Path 7796" d="M84.515,98.414a11.955,11.955,0,1,1-11.949-11.53,11.744,11.744,0,0,1,11.949,11.53" transform="translate(80.271 115.049)" fill="#8aa047"/>
        <path id="Path_7797" data-name="Path 7797" d="M77.225,87.182a11.955,11.955,0,1,1-11.949-11.53,11.744,11.744,0,0,1,11.949,11.53" transform="translate(70.618 100.176)" fill="#8aa047"/>
        <path id="Path_7798" data-name="Path 7798" d="M85.637,84.936a11.955,11.955,0,1,1-11.949-11.53,11.744,11.744,0,0,1,11.949,11.53" transform="translate(81.757 97.202)" fill="#8aa047"/>
        <path id="Path_7799" data-name="Path 7799" d="M82.646,91.3A11.955,11.955,0,1,1,70.7,79.771,11.745,11.745,0,0,1,82.646,91.3" transform="translate(77.796 105.63)" fill="#a4ba56"/>
        <path id="Path_7800" data-name="Path 7800" d="M85.824,70.709a11.955,11.955,0,1,1-11.951-11.53,11.746,11.746,0,0,1,11.951,11.53" transform="translate(82.004 78.363)" fill="#a4ba56"/>
        <path id="Path_7801" data-name="Path 7801" d="M94.422,62.659a11.955,11.955,0,1,1-11.949-11.53,11.744,11.744,0,0,1,11.949,11.53" transform="translate(93.389 67.703)" fill="#a4ba56"/>
        <path id="Path_7802" data-name="Path 7802" d="M94.913,55.1c0,6.849-5.836,12.4-13.034,12.4s-13.034-5.55-13.034-12.4,5.836-12.4,13.034-12.4,13.034,5.552,13.034,12.4" transform="translate(91.162 56.549)" fill="#5c7225"/>
        <path id="Path_7803" data-name="Path 7803" d="M63.365,37.728C61,43.239,56.79,49.891,60.692,54.444c1.539,1.794,3.928,2.533,6.045,3.577,9.594,4.73,14,16.534,13.218,27.211s-5.694,20.557-10.519,30.112a30.693,30.693,0,0,1,11.893,7.382c-2.684-5.383-.358-11.79,1.794-17.41,3.282-8.576,6.154-17.547,5.857-26.726S84.7,59.9,76.887,55.085c-3.479-2.143-8.146-4.1-8.4-8.179a9.952,9.952,0,0,1,.73-3.7Q71.932,35.1,74.642,27c.635-1.9,1.274-3.926.76-5.857-.588-2.215-2.529-3.744-4.074-5.436A18.594,18.594,0,0,1,66.851,0c-12.123,2.631-8.939,7.279-4.674,15.514a26.3,26.3,0,0,1,1.188,22.214" transform="translate(77.273)" fill="#618227"/>
        <path id="Path_7804" data-name="Path 7804" d="M80.519,57.164c0,6.847-5.836,12.4-13.034,12.4s-13.034-5.552-13.034-12.4,5.836-12.4,13.034-12.4,13.034,5.55,13.034,12.4" transform="translate(72.102 59.276)" fill="#85ae42"/>
        <path id="Path_7805" data-name="Path 7805" d="M91.361,60.533c0,6.849-5.836,12.4-13.034,12.4s-13.034-5.55-13.034-12.4,5.836-12.4,13.034-12.4,13.034,5.55,13.034,12.4" transform="translate(86.459 63.737)" fill="#739334"/>
        <path id="Path_7806" data-name="Path 7806" d="M84.258,65.775c0,6.849-5.836,12.4-13.034,12.4s-13.034-5.55-13.034-12.4,5.836-12.4,13.034-12.4,13.034,5.55,13.034,12.4" transform="translate(77.053 70.679)" fill="#54700f"/>
        <path id="Path_7807" data-name="Path 7807" d="M95.847,70.08c0,6.849-5.836,12.4-13.034,12.4s-13.034-5.55-13.034-12.4,5.836-12.4,13.034-12.4,13.034,5.552,13.034,12.4" transform="translate(92.399 76.379)" fill="#739334"/>
        <path id="Path_7808" data-name="Path 7808" d="M78.276,73.263c0,6.849-5.836,12.4-13.034,12.4s-13.034-5.55-13.034-12.4,5.836-12.4,13.034-12.4,13.034,5.55,13.034,12.4" transform="translate(69.132 80.594)" fill="#c19336"/>
        <path id="Path_7809" data-name="Path 7809" d="M90.239,91.047c0,6.849-5.836,12.4-13.034,12.4s-13.034-5.55-13.034-12.4,5.836-12.4,13.034-12.4,13.034,5.55,13.034,12.4" transform="translate(84.973 104.143)" fill="#c19336"/>
        <path id="Path_7810" data-name="Path 7810" d="M90.239,76.633c0,6.849-5.836,12.4-13.034,12.4s-13.034-5.55-13.034-12.4,5.836-12.4,13.034-12.4,13.034,5.55,13.034,12.4" transform="translate(84.973 85.056)" fill="#382502"/>
        <path id="Path_7811" data-name="Path 7811" d="M81.64,105.647c0,6.849-5.836,12.4-13.034,12.4s-13.034-5.552-13.034-12.4,5.836-12.4,13.034-12.4,13.034,5.55,13.034,12.4" transform="translate(73.587 123.478)" fill="#c19336"/>
        <path id="Path_7812" data-name="Path 7812" d="M93.23,102.84c0,6.849-5.836,12.4-13.034,12.4s-13.034-5.55-13.034-12.4S73,90.441,80.2,90.441s13.034,5.55,13.034,12.4" transform="translate(88.934 119.759)" fill="#c19336"/>
        <path id="Path_7813" data-name="Path 7813" d="M89.3,115.2c0,6.849-5.836,12.4-13.034,12.4s-13.034-5.55-13.034-12.4,5.836-12.4,13.034-12.4S89.3,108.347,89.3,115.2" transform="translate(83.736 136.12)" fill="#c19336"/>
        <path id="Path_7814" data-name="Path 7814" d="M85.566,132.231c0,6.849-5.836,12.4-13.034,12.4s-13.034-5.55-13.034-12.4,5.836-12.4,13.034-12.4,13.034,5.55,13.034,12.4" transform="translate(78.785 158.677)" fill="#c19336"/>
        <path id="Path_7815" data-name="Path 7815" d="M80.332,117.816c0,6.849-5.836,12.4-13.034,12.4s-13.034-5.55-13.034-12.4,5.836-12.4,13.034-12.4,13.034,5.55,13.034,12.4" transform="translate(71.855 139.59)" fill="#382502"/>
        <path id="Path_7816" data-name="Path 7816" d="M61.737,113.822a3.412,3.412,0,0,0-3.261-2.51,1,1,0,0,0-1.006.951l0,.026a.814.814,0,0,0-.2.223.984.984,0,0,0-.123.739,1.1,1.1,0,0,0,.435.609,5.9,5.9,0,0,0,3.17,1.162.985.985,0,0,0,.981-1.2" transform="translate(75.64 147.395)" fill="#445916"/>
        <path id="Path_7817" data-name="Path 7817" d="M74.786,109.173a2.587,2.587,0,0,0-1.553-.672,2.436,2.436,0,0,0-1.415.344,2.722,2.722,0,0,0-.435.349c-.058-.016-.116-.03-.174-.049-.074-.026-.149-.056-.223-.081h0l-.028-.016a1.054,1.054,0,0,0-.739-.126.981.981,0,0,0-.3,1.787,5.409,5.409,0,0,0,1.673.521,1.266,1.266,0,0,0,.79.1,1.027,1.027,0,0,0,.232-.084,4.958,4.958,0,0,0,1.908-.542.959.959,0,0,0,.5-.711.918.918,0,0,0-.237-.818" transform="translate(91.989 143.666)" fill="#445916"/>
        <path id="Path_7818" data-name="Path 7818" d="M61.467,99.006c-1.255,0-1.32,1.957-.058,1.957s1.32-1.957.058-1.957" transform="translate(80.103 131.1)" fill="#445916"/>
        <path id="Path_7819" data-name="Path 7819" d="M78.666,95.684a2.242,2.242,0,0,0-2.343.641,2.544,2.544,0,0,0-.639,1.127,2.218,2.218,0,0,0,.149,1.462.866.866,0,0,0,.191.249v.016a.911.911,0,0,0,.555.665.938.938,0,0,0,.851-.016,3.794,3.794,0,0,0,1.934-3.177,1.007,1.007,0,0,0-.7-.967" transform="translate(100.139 126.55)" fill="#445916"/>
        <path id="Path_7820" data-name="Path 7820" d="M73.908,84.336a1.3,1.3,0,0,0-.023-.137.985.985,0,0,0-.674-.718,1.871,1.871,0,0,0-.818-.03,2.022,2.022,0,0,0-.39.128,1.158,1.158,0,0,0-.153.072,2.4,2.4,0,0,0-.332.237,2.261,2.261,0,0,0-.281.318.75.75,0,0,0-.091.149,1.923,1.923,0,0,0-.163.39,1.109,1.109,0,0,0,.07.734,1.123,1.123,0,0,0,.588.483c.081.014.167.026.249.04l.044,0,.019.028.2.167a.977.977,0,0,0,1.181-.109,3.552,3.552,0,0,0,.244-.288,1.253,1.253,0,0,0,.077-.116,3.084,3.084,0,0,0,.16-.344,1.239,1.239,0,0,0,.046-.13,2.851,2.851,0,0,0,.063-.365,1.279,1.279,0,0,0,.014-.132,2.867,2.867,0,0,0-.03-.372" transform="translate(93.939 110.461)" fill="#445916"/>
        <path id="Path_7821" data-name="Path 7821" d="M55.877,92.08A3.435,3.435,0,0,0,54.459,90.5a1,1,0,0,0-.971-.037,2.289,2.289,0,0,0-.746,1.848,12.015,12.015,0,0,0,1.713,2.45.977.977,0,0,0,1.657-.381,3.66,3.66,0,0,0-.235-2.3" transform="translate(69.693 119.646)" fill="#445916"/>
        <path id="Path_7822" data-name="Path 7822" d="M56.626,80.549a1.814,1.814,0,0,0-.463-.158,2.78,2.78,0,0,0-.418-.053,3.145,3.145,0,0,0-.418.037.958.958,0,0,0-.718.674,2.353,2.353,0,0,0,.177,1.652,2.128,2.128,0,0,0,.43.593,2.315,2.315,0,0,0,.616.432,3.774,3.774,0,0,0,.439.481,1,1,0,0,0,.816.3.947.947,0,0,0,.734-.446,2.542,2.542,0,0,0-1.195-3.514" transform="translate(72.21 106.38)" fill="#445916"/>
        <path id="Path_7823" data-name="Path 7823" d="M64.7,87.5a1.506,1.506,0,0,0-.149-.609.332.332,0,0,0-.035-.063,2.056,2.056,0,0,0-.188-.26,1.335,1.335,0,0,0-.311-.258,1.752,1.752,0,0,0-.177-.084,1.877,1.877,0,0,0-.186-.081l-.072-.019c-.107-.021-.216-.04-.325-.051a1.577,1.577,0,0,0-.277.014,1.471,1.471,0,0,0-.3.051,1.771,1.771,0,0,0-.383.156c-.1.058-.186.123-.272.188a.925.925,0,0,0-.07.065,2.567,2.567,0,0,0-.216.26c-.019.026-.035.053-.051.081a.742.742,0,0,0-.128.365.756.756,0,0,0,0,.374,1.1,1.1,0,0,0,.4.581l.012.033a.287.287,0,0,0,.028.06,2.293,2.293,0,0,0,.158.225l.023.03.026.023a2.626,2.626,0,0,0,.216.181,1.148,1.148,0,0,0,.17.084,1.411,1.411,0,0,0,.172.072,1.7,1.7,0,0,0,.3.051l.067,0c.1,0,.207-.016.307-.03a1.9,1.9,0,0,0,.358-.119.712.712,0,0,0,.132-.067,1.963,1.963,0,0,0,.309-.228,2.3,2.3,0,0,0,.207-.244.608.608,0,0,0,.044-.063,2.129,2.129,0,0,0,.132-.286c.009-.021.016-.044.023-.065a2.247,2.247,0,0,0,.049-.3.35.35,0,0,0,0-.07" transform="translate(81.493 113.978)" fill="#445916"/>
        <path id="Path_7824" data-name="Path 7824" d="M72.254,76.864A1,1,0,0,0,72,76.172a.981.981,0,0,0-1.381-.058q-1.1,1.091-2.192,2.18a1,1,0,0,0-.293.941.981.981,0,0,0,.674.718,1.775,1.775,0,0,0,.967-.007,1.852,1.852,0,0,0,.43-.186,2.444,2.444,0,0,0,.293-.216,3.116,3.116,0,0,0,.242-.284.922.922,0,0,0,.135-.644l1.067-1.06a1.035,1.035,0,0,0,.316-.693" transform="translate(90.185 100.449)" fill="#445916"/>
        <path id="Path_7825" data-name="Path 7825" d="M78.06,74.824a.935.935,0,0,0-.514-.379,2.1,2.1,0,0,0-2.029.56,2.421,2.421,0,0,0-.609,1.074c-.007.016-.019.028-.026.042a5.156,5.156,0,0,0-.458,1.169.979.979,0,0,0,1.157,1.234,3.456,3.456,0,0,0,2.661-3.112.923.923,0,0,0-.184-.588" transform="translate(98.504 98.485)" fill="#445916"/>
        <path id="Path_7826" data-name="Path 7826" d="M53.9,72.751c-1.255,0-1.32,1.957-.058,1.957s1.322-1.957.058-1.957" transform="translate(70.079 96.334)" fill="#445916"/>
        <path id="Path_7827" data-name="Path 7827" d="M56.955,66.131a1.891,1.891,0,0,0-1.3-1.553,1.747,1.747,0,0,0-2,1.2,2.473,2.473,0,0,0,.358,2.059,3,3,0,0,0,.4,1.594.982.982,0,0,0,.711.5.915.915,0,0,0,.816-.237,4.329,4.329,0,0,0,.925-1.662,4.2,4.2,0,0,0,.084-1.906" transform="translate(70.911 85.456)" fill="#445916"/>
        <path id="Path_7828" data-name="Path 7828" d="M65.376,60.578a2.453,2.453,0,0,0-.158-.623,1.893,1.893,0,0,0-.644-.795,1.581,1.581,0,0,0-.337-.184,1.494,1.494,0,0,0-.358-.128,2.03,2.03,0,0,0-.488-.056,1.937,1.937,0,0,0-.49.07,2.482,2.482,0,0,0-.325.126,1.944,1.944,0,0,0-.307.2,1.593,1.593,0,0,0-.33.365,1.183,1.183,0,0,0-.107.209,1.387,1.387,0,0,0-.1.228,1.835,1.835,0,0,0-.06.465,1.992,1.992,0,0,0,.07.467,1.876,1.876,0,0,0,.274.56,1.7,1.7,0,0,0,.435.439.88.88,0,0,0,.1.067,1.9,1.9,0,0,0,.342.144c.046.012.093.012.139.019a3.741,3.741,0,0,0,.49.442c.079.035.158.072.239.107a.737.737,0,0,0,.374.028.894.894,0,0,0,.565-.244,2.52,2.52,0,0,0,.337-.437,2.452,2.452,0,0,0,.228-.5,2.239,2.239,0,0,0,.1-.967" transform="translate(81.669 77.849)" fill="#445916"/>
        <path id="Path_7829" data-name="Path 7829" d="M58.647,50.2a.951.951,0,0,0-.467-.428.9.9,0,0,0-.618-.07,1.677,1.677,0,0,0-.948.707,1.819,1.819,0,0,0-.27.951,1.908,1.908,0,0,0,.174.8,4.645,4.645,0,0,0,.521,1.978A.986.986,0,0,0,58,54.65a1.006,1.006,0,0,0,.841-.686,4.689,4.689,0,0,0-.2-3.767" transform="translate(74.609 65.772)" fill="#445916"/>
        <path id="Path_7830" data-name="Path 7830" d="M76.386,52.533a.943.943,0,0,0-.962.883,1.04,1.04,0,0,0-.216.235l-1.715,2.185-.109.239c-.014.084-.026.167-.04.251a.966.966,0,0,0,.184.588.946.946,0,0,0,.4.325,1.058,1.058,0,0,0,.618.07,2.25,2.25,0,0,0,.786-.267A2.52,2.52,0,0,0,76,56.521a3.415,3.415,0,0,0,.33-.425,3.353,3.353,0,0,0,.237-.486,2.253,2.253,0,0,0,.149-.725l.153-.2a.845.845,0,0,0,.142-.472.974.974,0,0,0-.623-1.685" transform="translate(97.118 69.562)" fill="#445916"/>
        <path id="Path_7831" data-name="Path 7831" d="M82.717,56.217a.983.983,0,0,0-1.171-.734c-.084.028-.16.067-.242.1l-.042-.016a1,1,0,0,0-1.216.658c-.026.079-.049.158-.074.237a3.587,3.587,0,0,0-.953,3.193,1.564,1.564,0,0,0,.16,1.051,1.377,1.377,0,0,0,1.506.66,2.069,2.069,0,0,0,1.137-.818,5.052,5.052,0,0,0,.851-1.855,5.737,5.737,0,0,0,.044-2.475" transform="translate(104.55 73.423)" fill="#54700f"/>
        <path id="Path_7832" data-name="Path 7832" d="M65.19,130.149a9.271,9.271,0,0,0-1.529-3.168q-.042-.129-.077-.258a.994.994,0,0,0-1.174-.732,1.036,1.036,0,0,0-.755.86,2.671,2.671,0,0,0,.49,3.8.96.96,0,0,0,1.095-.037c.046.067.084.139.132.209a1.057,1.057,0,0,0,.586.483,1.031,1.031,0,0,0,.616-.028.98.98,0,0,0,.616-1.132" transform="translate(80.872 166.791)" fill="#54700f"/>
        <path id="Path_7833" data-name="Path 7833" d="M75.1,117.471a1.012,1.012,0,0,0-.553-.665.929.929,0,0,0-.853.019,3.614,3.614,0,0,0-1.713,3.212c-.072.3-.146.607-.221.909a.985.985,0,0,0,1.392,1.148,3.937,3.937,0,0,0,1.948-4.623" transform="translate(94.981 154.545)" fill="#54700f"/>
        <path id="Path_7834" data-name="Path 7834" d="M59.3,119.557c-.016-.093-.04-.184-.051-.277a.977.977,0,0,0-1.174-.734.983.983,0,0,0-.609.437,1.034,1.034,0,0,0-.135.5,2.475,2.475,0,0,0,.27,2.931,1,1,0,0,0,.672.309l.033.07a.986.986,0,0,0,1.085.5,1.188,1.188,0,0,0,.442-.232,1.051,1.051,0,0,0,.316-.693,3.7,3.7,0,0,0-.848-2.808" transform="translate(75.439 156.94)" fill="#54700f"/>
        <path id="Path_7835" data-name="Path 7835" d="M68.42,115.782a3.318,3.318,0,0,0-1.311-.009,3.094,3.094,0,0,0-1.025.4,3.3,3.3,0,0,0-1.478,1.885,1,1,0,0,0,.418,1.109,1.845,1.845,0,0,0,1.278.26,2.111,2.111,0,0,0,1-.449,1.911,1.911,0,0,0,.381-.381,3.657,3.657,0,0,0,.446-.284A2.86,2.86,0,0,0,69.078,117a.983.983,0,0,0-.658-1.218" transform="translate(85.5 153.222)" fill="#54700f"/>
        <path id="Path_7836" data-name="Path 7836" d="M54.478,104.834a2.992,2.992,0,0,0-.135-.4,1.358,1.358,0,0,0-.084-.177,1.1,1.1,0,0,0-.074-.107.189.189,0,0,0,0-.051.752.752,0,0,0-.1-.358,1,1,0,0,0-.588-.483.987.987,0,0,0-.732.07.957.957,0,0,0-.483.588l-.021.123a.6.6,0,0,0-.037.1,1.044,1.044,0,0,0-.023.423v.009a3.984,3.984,0,0,0,.049.644,3.184,3.184,0,0,0,.351,1.02c.049.07.1.139.144.207l.2.17c.081.035.16.072.239.107a.733.733,0,0,0,.374.028.481.481,0,0,0,.242-.056.472.472,0,0,0,.221-.116.486.486,0,0,0,.188-.174.758.758,0,0,0,.191-.339,2.005,2.005,0,0,0,.128-.6,1.367,1.367,0,0,0,0-.2,2.68,2.68,0,0,0-.051-.43" transform="translate(69.107 136.68)" fill="#54700f"/>
        <path id="Path_7837" data-name="Path 7837" d="M65.561,93.044a1.566,1.566,0,0,0-.332-.637,1.133,1.133,0,0,0-.091-.093,2.158,2.158,0,0,0-.3-.237,2.425,2.425,0,0,0-.335-.153.793.793,0,0,0-.132-.037,1.673,1.673,0,0,0-.72-.012,1.489,1.489,0,0,0-.581.291.835.835,0,0,0-.265.021.978.978,0,0,0-.732,1.174,1.749,1.749,0,0,0,.188.451,2.26,2.26,0,0,0,.216.293,2.549,2.549,0,0,0,.281.244,1.158,1.158,0,0,0,.216.135,2.142,2.142,0,0,0,.479.184l.07.012a1.151,1.151,0,0,0,.4.109,1.093,1.093,0,0,0,.532-.13l.012-.009a1.656,1.656,0,0,0,.414-.172,2.219,2.219,0,0,0,.3-.214,2.163,2.163,0,0,0,.244-.281.887.887,0,0,0,.135-.274,1.332,1.332,0,0,0,.044-.3,1.545,1.545,0,0,0-.035-.358" transform="translate(82.153 121.612)" fill="#54700f"/>
        <g id="Group_27998" data-name="Group 27998" transform="translate(131.342 104.802)" opacity="0.5" style="mix-blend-mode: multiply;isolation: isolate">
          <g id="Group_27997" data-name="Group 27997">
            <g id="Group_27996" data-name="Group 27996" clip-path="url(#clip-path-7)">
              <path id="Path_7838" data-name="Path 7838" d="M56.511,46.714a12.02,12.02,0,0,1,12.281.128c3.6,2.368,5.443,7.293,3.863,11.3-1.343,3.4-4.632,5.566-7.73,7.507q-2.273,1.426-4.546,2.849c4.837-1.987,10.587-3.912,15.03-1.155,3.472,2.152,4.909,6.8,3.937,10.766-1.629,6.663-9.913,10.761-16.2,8.011,2.415.063,4.362,2.273,4.864,4.637a13.223,13.223,0,0,1-.951,7.093,45.124,45.124,0,0,1-6.417,11.9c2.547-1.824,6.419,1.02,6.35,4.153s-2.791,5.641-5.72,6.752c2.724.493,3.021,4.409,1.88,6.933s-3.068,5.062-2.422,7.756a9.388,9.388,0,0,1,6.673-6.041,22.346,22.346,0,0,0-2.875,18.889c-1.913-7.026,3.252-15.13,10.429-16.367,1.811-.311,4.018-.451,4.871-2.078,1.009-1.927-.8-4.093-2.5-5.446s-3.691-3.21-3.07-5.294c.681-2.292,3.765-2.557,6.154-2.438s5.513-.4,5.913-2.761c.33-1.948-1.587-3.493-3.351-4.386s-3.837-1.887-4.253-3.819A5.3,5.3,0,0,1,79,102.966c1.13-3.674,3.5-7.168,7.035-8.683s8.258-.469,10.108,2.9c-.139-3.956-5.125-7-4.091-10.821a6.066,6.066,0,0,1,1.811-2.7c2.108-2.008,4.753-3.356,7.019-5.183s4.244-4.414,4.165-7.323a27.553,27.553,0,0,1-7.356,3.565A4.327,4.327,0,0,1,94.9,74.9a1.67,1.67,0,0,1-1-2.273,2.668,2.668,0,0,1,1.2-.83,10.705,10.705,0,0,0,5.255-4.932,7.119,7.119,0,0,0-.4-7.005,19.247,19.247,0,0,1-6.684,4.883c-2.059.9-4.455,1.425-6.531.567s-3.47-3.53-2.333-5.466c.579-.985,1.643-1.576,2.392-2.44s1.062-2.371.135-3.04l-6.775,2.852c-.813.342-1.82.665-2.517.123-.734-.572-.616-1.687-.539-2.617a7.63,7.63,0,0,0-1.39-5.343,4.743,4.743,0,0,0-5.02-1.722Z" transform="translate(-56.512 -45.093)" fill="#50661a"/>
            </g>
          </g>
        </g>
        <g id="Group_28001" data-name="Group 28001" transform="translate(125.357 121.988)" opacity="0.5" style="mix-blend-mode: multiply;isolation: isolate">
          <g id="Group_28000" data-name="Group 28000">
            <g id="Group_27999" data-name="Group 27999" clip-path="url(#clip-path-8)">
              <path id="Path_7839" data-name="Path 7839" d="M59.664,107.528a8.347,8.347,0,0,1,4.546,14.949c-2.838,2.18-6.694,2.315-10.273,2.359.781,2.182,3.54,2.7,5.618,3.73a9.472,9.472,0,0,1,4.279,11.9c-.96,2.152-2.71,3.846-3.919,5.873A13.3,13.3,0,0,0,58.29,155.6a9.07,9.07,0,0,1,7.986-5.743,11.642,11.642,0,0,1,9.192,4.118c2.21,2.538,3.4,6.2,2.213,9.35-1.1,2.908-4.028,4.825-7.068,5.469a23.06,23.06,0,0,1-9.248-.4,10.7,10.7,0,0,1,3.207,10.3c1.892-1.776,5.139-1.329,7.086.388s2.831,4.339,3.293,6.893.59,5.185,1.4,7.651l.978-1.669a6.614,6.614,0,0,1,.256,7.979c-1.274,1.715-3.544,3.3-2.966,5.36a5.817,5.817,0,0,0,1.322,1.973,10.619,10.619,0,0,1,2.4,6.373c.767-.349.793-1.395.886-2.231.542-4.895,7.056-8.646,5.3-13.245-.409-1.074-1.271-2.05-1.176-3.2a9.848,9.848,0,0,1,.528-1.727c.727-2.647-1.769-4.976-2.733-7.547-1.383-3.693.665-7.984,3.828-10.338s7.186-3.182,11.089-3.763c-.8-1.474-2.819-1.594-4.328-2.324-2.882-1.395-3.807-5.236-3.005-8.334s2.884-5.676,4.725-8.293,3.544-5.592,3.4-8.79c-2.2,0-3.977,1.98-6.168,2.22a4.724,4.724,0,0,1-4.823-3.707,6.3,6.3,0,0,1,2.2-5.945,2.173,2.173,0,0,0,.811-.981c.279-1.032-1.09-1.629-2.094-2a7.291,7.291,0,0,1,.8-13.912,12.019,12.019,0,0,1-4.114-4.188c-.851-1.787-.558-4.286,1.157-5.271a5.311,5.311,0,0,1,2.835-.5,24.071,24.071,0,0,1,8.13,1.664c1.311-1.257.019-3.6-1.685-4.225s-3.614-.311-5.364-.781c-2.259-.607-3.977-2.419-5.39-4.281-1.641-2.161-3.091-4.66-3.082-7.372a8.67,8.67,0,0,1,4.688-7.356,11.722,11.722,0,0,1,8.9-.609c2.645.83,5.559,2.417,7.974,1.057-2.905-1.455-6.305-3.84-5.685-7.031.562-2.9,3.986-4.009,6.589-5.406a15.357,15.357,0,0,0,7.5-9.478l-7.558-2.717a9.012,9.012,0,0,0,3.377-10.549c-3.719,2.526-4.051,8.3-7.786,10.81-2.9,1.948-7.777,2.02-8.455,5.448q-1.781-5.686-3.561-11.377c-2.315,4.056-1.367,9.078-1.053,13.74s-.646,10.231-4.867,12.227a3.981,3.981,0,0,1-3.423.186c-2.2-1.1-2.013-4.258-3.119-6.45a7.3,7.3,0,0,0-5.659-3.57,21.5,21.5,0,0,0-6.907.579c6.735,1.436,10.166,10.115,7.514,16.474-1.9,4.56-7.312,8.1-11.814,6.066,4.367.5,8.857,2.543,10.926,6.424s.6,9.643-3.579,11.007Z" transform="translate(-53.936 -52.487)" fill="#50661a"/>
            </g>
          </g>
        </g>
        <path id="Path_7840" data-name="Path 7840" d="M59.093,39.091A102.048,102.048,0,0,0,7.29,163.615c7.207,21.206,21.582,41.219,19.653,63.536-1.062,12.281-7.119,24.3-4.895,36.42,10.9-6.626,17.91-17.943,26.821-27.065,12.123-12.406,27.909-20.859,39.553-33.717,10.013-11.061,16.485-24.871,21.512-38.916,8.051-22.491,12.762-46.079,21.076-68.472,5.362-14.442,12.241-28.462,15.149-43.59a84.882,84.882,0,0,0-.739-35.706c-3.107-12.8-8.869-6.415-16.764-.925C108.975,28.865,80.75,28.5,59.093,39.091" transform="translate(2.558 11.441)" fill="#2b630b"/>
      </g>
    </g>
    <g id="Group_28014" data-name="Group 28014" transform="translate(4.487 20.081)">
      <g id="Group_28013" data-name="Group 28013" clip-path="url(#clip-path-9)">
        <g id="Group_28006" data-name="Group 28006" transform="translate(-4.294 -6.05)" opacity="0.15" style="mix-blend-mode: multiply;isolation: isolate">
          <g id="Group_28005" data-name="Group 28005" transform="translate(0)">
            <g id="Group_28004" data-name="Group 28004" clip-path="url(#clip-path-10)">
              <path id="Path_7841" data-name="Path 7841" d="M70.808,30.188c-20.69,6.259-40.215,17.687-53.665,34.607s-20.25,39.65-15.6,60.761C12.834,87.118,45.716,55.823,84.665,46.447c7.024-1.69,15.17-2.48,20.794,2.055,6.359,5.125,6.624,14.619,5.685,22.73-1.532,13.234-4.795,26.2-8.053,39.113-6.666,26.416-13.378,52.935-23.774,78.118s-24.685,49.161-44.65,67.7c-5.276,4.9-11.379,10.308-11.556,17.5,30.151-12.455,60.744-26.089,84.016-48.949,32.315-31.743,46.611-77.367,55.41-121.8,5.452-27.527,8.974-57.379-3.386-82.573-3.08-6.275-9.517-14.861-17.438-14.277-6.561.483-13.65,7.428-19.616,10.008-16.351,7.075-34.333,8.985-51.29,14.115" transform="translate(-0.083 -6.037)" fill="#326300"/>
            </g>
          </g>
        </g>
        <g id="Group_28009" data-name="Group 28009" transform="translate(20.686 5.122)" opacity="0.15" style="mix-blend-mode: multiply;isolation: isolate">
          <g id="Group_28008" data-name="Group 28008">
            <g id="Group_28007" data-name="Group 28007" clip-path="url(#clip-path-11)">
              <path id="Path_7842" data-name="Path 7842" d="M53.131,105.991c-6.84,22.94-9.02,46.988-14.124,70.376-6.387,29.252-17.3,57.288-28.176,85.185C35.788,213.235,50.6,160.281,61.156,106.932A160.55,160.55,0,0,1,50.063,217.539c7-13.308,14.068-26.791,17.568-41.414,4.62-19.293,2.787-39.446,2.768-59.287S72.563,76.13,83.875,59.831a5.812,5.812,0,0,1,2.51-2.347c2.443-.911,4.8,1.471,6.178,3.684,8.541,13.747,9.766,30.774,9.036,46.939a229.162,229.162,0,0,1-8.634,52.77c9.571-23.948,18.83-49.061,16.892-74.778-1.125-14.919-5.959-30.291-1.178-44.468.913-2.708,2.25-5.4,4.534-7.119s5.708-2.166,7.963-.411A10.438,10.438,0,0,1,124,38.588q4.072,9.908,8.146,19.818c-1.241-3.019,3.245-14.877,3.6-18.7.583-6.292,1.315-13.964-.232-20.157-3.205-12.825-13.643-9.336-21.54-3.11A181.193,181.193,0,0,0,68.742,69.4a177.534,177.534,0,0,0-15.611,36.594" transform="translate(-10.831 -10.844)" fill="#326300"/>
            </g>
          </g>
        </g>
        <g id="Group_28012" data-name="Group 28012" transform="translate(-4.487 9.087)" opacity="0.15" style="mix-blend-mode: multiply;isolation: isolate">
          <g id="Group_28011" data-name="Group 28011">
            <g id="Group_28010" data-name="Group 28010" clip-path="url(#clip-path-12)">
              <path id="Path_7843" data-name="Path 7843" d="M83.816,30.453C70.457,34.794,56.8,38.662,44.549,45.539S21.361,62.81,17.094,76.195C33.551,51.27,66.039,38.1,95.207,44.526c-1.662,5.536-7.923,8.018-13.376,9.933C61.121,61.734,40.9,71.688,25.235,87.067S-1.111,123.877.093,145.794C7.614,110.151,36.008,79.73,71.049,69.773c2.406-.686,5.6-.978,6.819,1.209.939,1.685.009,3.772-1.016,5.4-8.493,13.515-23.388,21.368-35.292,32C20.345,127.326,8.587,158.066,16.778,185.3c-2.433-27.637,11.056-56.119,33.979-71.749,2.324-1.585,5.413-3.066,7.8-1.573,2.554,1.594,2.364,5.339,1.648,8.265-2.159,8.836-6.219,17.069-10.04,25.324A533.658,533.658,0,0,0,28.8,199.157c5.729-10.728,11.909-21.949,22.249-28.35,2.58,4.072,1.146,9.387-.4,13.954q-11.072,32.7-24.762,64.442c13.482-13.734,20.369-32.459,26.751-50.616q6.035-17.17,11.914-34.393C68,154.08,71.419,143.942,74.11,133.6c3.681-14.143,6-28.629,10.1-42.658,6.759-23.144,18.719-45.131,35.85-62.237,2.908-2.9,12.111-8.149,13.6-11.672,3.128-7.4-4.077-3.8-8.149-2.085Q105,23.579,83.816,30.453" transform="translate(0 -12.55)" fill="#326300"/>
            </g>
          </g>
        </g>
      </g>
    </g>
  </g>
</svg>
